<svg xmlns="http://www.w3.org/2000/svg" xmlns:xlink="http://www.w3.org/1999/xlink" id="Layer_1" x="0px" y="0px" viewBox="0 0 114 73" style="enable-background:new 0 0 114 73;" xml:space="preserve"><style type="text/css">	.st0{fill:#F37928;}	.st1{fill:#3C2D7A;}</style><g>	<g>		<g>			<rect x="51.5" y="6.5" class="st0" width="11.5" height="3.7"></rect>			<rect x="51.5" y="15.4" class="st0" width="11.5" height="3.7"></rect>			<rect x="51.5" y="24.3" class="st0" width="11.5" height="3.7"></rect>		</g>		<g>			<rect x="1.7" y="35.1" class="st0" width="3.3" height="17.5"></rect>			<polygon class="st0" points="20.5,45.6 8.2,34.1 8.2,52.6 11.5,52.6 11.5,42.2 23.8,53.6 23.8,35.1 20.5,35.1    "></polygon>			<polygon class="st0" points="25.3,38.2 29.1,38.2 29.1,52.6 32.4,52.6 32.4,38.2 36.2,38.2 36.2,35.1 25.3,35.1    "></polygon>			<polygon class="st0" points="37.7,52.6 47.8,52.6 47.8,49.4 41,49.4 41,44.6 47.6,44.6 47.6,41.5 41,41.5 41,38.2 47.8,38.2     47.8,35.1 37.7,35.1    "></polygon>			<path class="st0" d="M59.6,45.1c0.8-0.3,1.5-0.8,2-1.5c0.7-0.9,1.1-2,1.1-3.3c0-1.6-0.6-3-1.8-4c-1.1-0.9-2.7-1.3-5-1.3h-5.2    v17.5H54v-6.9H55v0l0.8,0c0,0,0.1,0,0.3,0l3.8,6.9h4L59.6,45.1z M59.4,40.4c0,1-0.3,2.4-3.2,2.4l-2.2,0v-4.6h2.3    C59.1,38.2,59.4,39.5,59.4,40.4z"></path>		</g>	</g>	<g>		<g>			<rect x="63.2" y="2.1" class="st1" width="11.3" height="3.7"></rect>			<rect x="63.2" y="11" class="st1" width="11.3" height="3.7"></rect>			<rect x="63.2" y="19.9" class="st1" width="11.3" height="3.7"></rect>		</g>		<g>			<polygon class="st1" points="63.6,38.2 67.4,38.2 67.4,52.6 70.7,52.6 70.7,38.2 74.5,38.2 74.5,35.1 63.6,35.1    "></polygon>			<polygon class="st1" points="86,41.7 79.6,41.7 79.6,35.1 76.3,35.1 76.3,52.6 79.6,52.6 79.6,44.8 86,44.8 86,52.6 89.3,52.6     89.3,35.1 86,35.1    "></polygon>			<path class="st1" d="M90.4,52.6H94l1.5-3.3h7.4l1.4,3.3h3.6l-8.6-18.5L90.4,52.6z M99.2,41l1.9,4.4h0l0.3,0.8h-4.6L99.2,41z"></path>			<rect x="109" y="35.1" class="st1" width="3.3" height="17.5"></rect>		</g>		<g>			<path class="st1" d="M8.7,65.8c-0.6,0.5-1.4,0.7-2.6,0.7H4v3.7H1.9V60h4.4c1,0,1.8,0.3,2.4,0.8c0.6,0.5,0.9,1.3,0.9,2.4    C9.6,64.4,9.3,65.3,8.7,65.8z M7.1,62.1c-0.3-0.2-0.6-0.3-1.1-0.3H4v3h1.9c0.5,0,0.9-0.1,1.1-0.4c0.3-0.2,0.4-0.6,0.4-1.2    C7.5,62.7,7.3,62.3,7.1,62.1z"></path>			<path class="st1" d="M16.5,62.7c0.4,0.2,0.7,0.4,0.9,0.7c0.2,0.3,0.3,0.6,0.4,0.9c0,0.3,0.1,0.8,0.1,1.5v4.4h-2v-4.6    c0-0.4-0.1-0.7-0.2-1c-0.2-0.3-0.5-0.5-1-0.5c-0.5,0-0.9,0.2-1.2,0.5c-0.3,0.3-0.4,0.8-0.4,1.5v4.1h-2V60h2v3.6    c0.3-0.4,0.6-0.7,1-0.9c0.4-0.2,0.8-0.3,1.2-0.3C15.7,62.4,16.2,62.5,16.5,62.7z"></path>			<path class="st1" d="M22.7,65.6c0.4,0,0.6-0.1,0.8-0.2c0.3-0.1,0.4-0.3,0.4-0.6c0-0.3-0.1-0.5-0.3-0.6c-0.2-0.1-0.5-0.2-1-0.2    c-0.5,0-0.8,0.1-1,0.3c-0.1,0.2-0.2,0.4-0.3,0.7h-1.9c0-0.7,0.2-1.2,0.6-1.6c0.5-0.7,1.4-1,2.7-1c0.8,0,1.6,0.2,2.2,0.5    c0.6,0.3,1,0.9,1,1.8v3.5c0,0.2,0,0.5,0,0.9c0,0.3,0.1,0.4,0.1,0.5c0.1,0.1,0.2,0.2,0.3,0.2v0.3h-2.1c-0.1-0.2-0.1-0.3-0.1-0.4    c0-0.1,0-0.3-0.1-0.5c-0.3,0.3-0.6,0.5-0.9,0.8c-0.4,0.2-0.9,0.4-1.4,0.4c-0.7,0-1.3-0.2-1.7-0.6c-0.4-0.4-0.7-0.9-0.7-1.7    c0-0.9,0.4-1.6,1.1-2c0.4-0.2,1-0.4,1.7-0.5L22.7,65.6z M23.9,66.5c-0.1,0.1-0.3,0.1-0.4,0.2c-0.1,0-0.3,0.1-0.5,0.1l-0.4,0.1    c-0.4,0.1-0.7,0.2-0.9,0.3c-0.3,0.2-0.5,0.5-0.5,0.8c0,0.3,0.1,0.6,0.3,0.7c0.2,0.1,0.4,0.2,0.7,0.2c0.4,0,0.8-0.1,1.2-0.4    c0.4-0.2,0.5-0.7,0.6-1.4V66.5z"></path>			<path class="st1" d="M31.8,62.5c0,0,0.1,0,0.2,0v2c-0.1,0-0.2,0-0.3,0c-0.1,0-0.2,0-0.2,0c-0.8,0-1.3,0.3-1.6,0.8    c-0.2,0.3-0.2,0.7-0.2,1.3v3.6h-2v-7.5h1.9v1.3c0.3-0.5,0.6-0.8,0.8-1C30.6,62.6,31.1,62.5,31.8,62.5    C31.7,62.5,31.8,62.5,31.8,62.5z"></path>			<path class="st1" d="M42.5,62.7c0.3,0.1,0.6,0.4,0.9,0.7c0.2,0.3,0.4,0.6,0.4,1c0,0.3,0.1,0.6,0.1,1.1l0,4.7h-2v-4.8    c0-0.3,0-0.5-0.1-0.7c-0.2-0.3-0.5-0.5-1-0.5c-0.5,0-0.9,0.2-1.1,0.7c-0.1,0.2-0.2,0.5-0.2,0.9v4.5h-2v-4.5c0-0.4,0-0.8-0.1-1    c-0.2-0.4-0.5-0.5-1-0.5c-0.6,0-0.9,0.2-1.1,0.5c-0.1,0.2-0.2,0.5-0.2,0.9v4.5h-2v-7.5H35v1.1c0.2-0.4,0.5-0.7,0.7-0.8    c0.4-0.3,0.9-0.4,1.5-0.4c0.6,0,1,0.1,1.4,0.4c0.3,0.2,0.5,0.5,0.6,0.9c0.3-0.4,0.6-0.8,1-1c0.4-0.2,0.9-0.3,1.4-0.3    C41.9,62.5,42.2,62.5,42.5,62.7z"></path>			<path class="st1" d="M48.7,65.6c0.4,0,0.6-0.1,0.8-0.2c0.3-0.1,0.4-0.3,0.4-0.6c0-0.3-0.1-0.5-0.3-0.6c-0.2-0.1-0.5-0.2-1-0.2    c-0.5,0-0.8,0.1-1,0.3c-0.1,0.2-0.2,0.4-0.3,0.7h-1.9c0-0.7,0.2-1.2,0.6-1.6c0.5-0.7,1.4-1,2.7-1c0.8,0,1.6,0.2,2.2,0.5    c0.6,0.3,1,0.9,1,1.8v3.5c0,0.2,0,0.5,0,0.9c0,0.3,0.1,0.4,0.1,0.5c0.1,0.1,0.2,0.2,0.3,0.2v0.3h-2.1C50.1,70,50,69.9,50,69.7    c0-0.1,0-0.3-0.1-0.5c-0.3,0.3-0.6,0.5-0.9,0.8c-0.4,0.2-0.9,0.4-1.4,0.4c-0.7,0-1.3-0.2-1.7-0.6c-0.4-0.4-0.7-0.9-0.7-1.7    c0-0.9,0.4-1.6,1.1-2c0.4-0.2,1-0.4,1.7-0.5L48.7,65.6z M49.9,66.5c-0.1,0.1-0.3,0.1-0.4,0.2c-0.1,0-0.3,0.1-0.5,0.1l-0.4,0.1    c-0.4,0.1-0.7,0.2-0.9,0.3c-0.3,0.2-0.5,0.5-0.5,0.8c0,0.3,0.1,0.6,0.3,0.7c0.2,0.1,0.4,0.2,0.7,0.2c0.4,0,0.8-0.1,1.2-0.4    c0.4-0.2,0.6-0.7,0.6-1.4V66.5z"></path>			<path class="st1" d="M58.1,65.3c0-0.3-0.1-0.5-0.3-0.8c-0.2-0.3-0.6-0.5-1-0.5c-0.7,0-1.1,0.3-1.4,1c-0.1,0.3-0.2,0.8-0.2,1.4    c0,0.6,0.1,1,0.2,1.3c0.2,0.6,0.7,0.9,1.3,0.9c0.5,0,0.8-0.1,1-0.4c0.2-0.2,0.3-0.6,0.4-1h2c0,0.6-0.3,1.2-0.6,1.7    c-0.6,0.9-1.5,1.3-2.7,1.3c-1.2,0-2.1-0.4-2.7-1.1c-0.6-0.7-0.9-1.6-0.9-2.8c0-1.3,0.3-2.3,0.9-3c0.6-0.7,1.5-1.1,2.6-1.1    c0.9,0,1.7,0.2,2.3,0.6c0.6,0.4,1,1.2,1.1,2.2H58.1z"></path>			<path class="st1" d="M66.3,62.8c0.5,0.2,1,0.6,1.3,1.1c0.3,0.4,0.5,1,0.6,1.6c0.1,0.3,0.1,0.8,0.1,1.5h-5.5    c0,0.8,0.3,1.3,0.8,1.6c0.3,0.2,0.7,0.3,1.1,0.3c0.4,0,0.8-0.1,1.1-0.3c0.2-0.1,0.3-0.3,0.4-0.5h2c-0.1,0.4-0.3,0.9-0.7,1.4    c-0.7,0.7-1.6,1.1-2.8,1.1c-1,0-1.9-0.3-2.7-0.9c-0.8-0.6-1.1-1.6-1.1-3c0-1.3,0.3-2.3,1-3c0.7-0.7,1.6-1,2.7-1    C65.2,62.4,65.8,62.6,66.3,62.8z M63.4,64.5c-0.3,0.3-0.5,0.7-0.5,1.2h3.4c0-0.5-0.2-0.9-0.5-1.2c-0.3-0.3-0.7-0.4-1.2-0.4    C64,64.1,63.7,64.2,63.4,64.5z"></path>			<path class="st1" d="M71.2,62.6v4.5c0,0.4,0.1,0.8,0.2,1c0.2,0.4,0.5,0.6,1,0.6c0.7,0,1.1-0.3,1.4-0.8c0.1-0.3,0.2-0.7,0.2-1.2    v-4.1h2v7.5h-1.9v-1.1c0,0-0.1,0.1-0.1,0.2c-0.1,0.1-0.2,0.2-0.3,0.3c-0.3,0.3-0.6,0.5-0.9,0.6c-0.3,0.1-0.6,0.2-1,0.2    c-1.1,0-1.9-0.4-2.2-1.2c-0.2-0.4-0.3-1.1-0.3-2v-4.5H71.2z"></path>			<path class="st1" d="M77.1,64.1v-1.4h1v-2.1h1.9v2.1h1.2v1.4h-1.2v4c0,0.3,0,0.5,0.1,0.6c0.1,0.1,0.3,0.1,0.7,0.1    c0.1,0,0.1,0,0.2,0c0.1,0,0.1,0,0.2,0v1.5l-0.9,0c-0.9,0-1.6-0.1-1.9-0.5c-0.2-0.2-0.3-0.6-0.3-1v-4.6H77.1z"></path>			<path class="st1" d="M84.6,61.7h-2v-1.8h2V61.7z M82.6,62.6h2v7.5h-2V62.6z"></path>			<path class="st1" d="M91,65.3c0-0.3-0.1-0.5-0.3-0.8c-0.2-0.3-0.6-0.5-1-0.5c-0.7,0-1.1,0.3-1.4,1c-0.1,0.3-0.2,0.8-0.2,1.4    c0,0.6,0.1,1,0.2,1.3c0.2,0.6,0.7,0.9,1.3,0.9c0.5,0,0.8-0.1,1-0.4c0.2-0.2,0.3-0.6,0.4-1h2c0,0.6-0.3,1.2-0.6,1.7    c-0.6,0.9-1.5,1.3-2.7,1.3c-1.2,0-2.1-0.4-2.7-1.1c-0.6-0.7-0.9-1.6-0.9-2.8c0-1.3,0.3-2.3,0.9-3c0.6-0.7,1.5-1.1,2.6-1.1    c0.9,0,1.7,0.2,2.3,0.6c0.6,0.4,1,1.2,1.1,2.2H91z"></path>			<path class="st1" d="M97.4,65.6c0.4,0,0.6-0.1,0.8-0.2c0.3-0.1,0.4-0.3,0.4-0.6c0-0.3-0.1-0.5-0.3-0.6c-0.2-0.1-0.5-0.2-1-0.2    c-0.5,0-0.8,0.1-1,0.3c-0.1,0.2-0.2,0.4-0.3,0.7h-1.9c0-0.7,0.2-1.2,0.6-1.6c0.5-0.7,1.4-1,2.7-1c0.8,0,1.6,0.2,2.2,0.5    c0.6,0.3,1,0.9,1,1.8v3.5c0,0.2,0,0.5,0,0.9c0,0.3,0.1,0.4,0.1,0.5c0.1,0.1,0.2,0.2,0.3,0.2v0.3h-2.1c-0.1-0.2-0.1-0.3-0.1-0.4    c0-0.1,0-0.3-0.1-0.5c-0.3,0.3-0.6,0.5-0.9,0.8c-0.4,0.2-0.9,0.4-1.4,0.4c-0.7,0-1.3-0.2-1.7-0.6c-0.4-0.4-0.7-0.9-0.7-1.7    c0-0.9,0.4-1.6,1.1-2c0.4-0.2,1-0.4,1.7-0.5L97.4,65.6z M98.6,66.5c-0.1,0.1-0.3,0.1-0.4,0.2c-0.1,0-0.3,0.1-0.5,0.1l-0.4,0.1    c-0.4,0.1-0.7,0.2-0.9,0.3c-0.3,0.2-0.5,0.5-0.5,0.8c0,0.3,0.1,0.6,0.3,0.7c0.2,0.1,0.4,0.2,0.7,0.2c0.4,0,0.8-0.1,1.2-0.4    c0.4-0.2,0.6-0.7,0.6-1.4V66.5z"></path>			<path class="st1" d="M104.3,70.2h-2V60h2V70.2z"></path>			<path class="st1" d="M107.7,67.8c0,0.3,0.1,0.6,0.3,0.7c0.2,0.3,0.7,0.4,1.4,0.4c0.4,0,0.7-0.1,0.9-0.2c0.2-0.1,0.3-0.3,0.3-0.5    c0-0.2-0.1-0.4-0.3-0.5c-0.2-0.1-0.9-0.3-2.1-0.6c-0.9-0.2-1.5-0.5-1.8-0.8c-0.4-0.3-0.5-0.8-0.5-1.4c0-0.7,0.3-1.3,0.8-1.8    c0.5-0.5,1.3-0.7,2.3-0.7c0.9,0,1.7,0.2,2.3,0.6c0.6,0.4,0.9,1,1,1.9h-2c0-0.3-0.1-0.5-0.2-0.6c-0.2-0.3-0.6-0.4-1.1-0.4    c-0.4,0-0.7,0.1-0.9,0.2c-0.2,0.1-0.3,0.3-0.3,0.5c0,0.2,0.1,0.4,0.3,0.5c0.2,0.1,0.9,0.3,2.1,0.5c0.8,0.2,1.4,0.5,1.8,0.8    c0.4,0.4,0.6,0.8,0.6,1.4c0,0.7-0.3,1.4-0.8,1.8c-0.6,0.5-1.4,0.7-2.6,0.7c-1.2,0-2.1-0.2-2.6-0.7c-0.6-0.5-0.8-1.1-0.8-1.9    H107.7z"></path>		</g>	</g></g></svg>