<svg width="120" height="44" viewBox="0 0 120 44" fill="none" xmlns="http://www.w3.org/2000/svg">
<g id="Layer_1" clip-path="url(#clip0_2001_2045)">
<path id="Vector" d="M37.254 33.69C37.254 33.69 36.936 25.932 23.772 23.646C23.478 23.592 23.22 23.838 23.25 24.132C23.478 26.436 24.762 33.792 36.594 33.69" fill="#00B189"/>
<path id="Vector_2" d="M22.776 31.404C22.776 31.404 19.722 17.532 28.422 9.024C36.066 1.542 40.614 17.07 18.768 24.18C-8.50199 33.054 20.826 38.628 22.776 31.404Z" fill="#003DA6"/>
<path id="Vector_3" d="M18.522 4.86C18.522 4.86 24.042 1.464 25.878 6.702C27.72 11.94 21.492 13.074 19.788 12.222C18.096 11.376 16.68 10.518 16.68 8.688C16.68 6.858 17.1 5.43 18.522 4.866" fill="#E1251B"/>
<path id="Vector_4" d="M28.272 22.818C28.272 22.818 30.156 16.89 36.216 16.83C38.298 16.806 41.856 22.236 41.622 23.346C41.082 25.896 28.422 26.25 28.272 22.818Z" fill="#E81F76"/>
<path id="Vector_5" d="M5.79601 24.516C5.79601 24.516 9.32401 26.736 15.516 24.246C19.494 22.638 18.522 21.192 17.712 20.844C8.85001 17.058 -0.383989 21.864 5.79601 24.516Z" fill="#ADAFB0"/>
<path id="Vector_6" d="M19.8962 20.5983L6.0542 14.5623C5.5922 14.3643 5.2682 13.9323 5.2082 13.4343C4.9622 11.4123 5.0942 6.32429 12.4922 5.38229C13.0022 5.31629 13.5002 5.57429 13.7402 6.03029L20.7962 19.4583C20.7962 19.4583 21.4982 21.1503 19.9022 20.5983" fill="#F3C300"/>
<path id="Vector_7" d="M31.332 35.16C30.084 34.758 29.724 35.364 27.708 36.366C25.62 37.41 22.584 39.078 16.794 38.52C15.024 38.346 12.582 37.842 8.64599 35.754C2.50199 32.49 1.10999 26.04 1.09799 20.85C1.09799 18.744 1.33799 16.854 1.56599 15.492C1.79399 14.13 2.02199 13.302 2.02199 13.302C2.05199 13.182 1.98599 13.062 1.87199 13.026C1.75799 12.99 1.63199 13.05 1.58999 13.164C0.479988 16.446 -0.00601196 19.464 -0.00601196 22.206C0.00598804 35.79 11.868 42.654 19.068 43.416C19.926 43.5 20.754 43.548 21.546 43.548C28.398 43.548 32.772 40.518 32.988 40.368C34.062 39.678 34.626 39.012 34.632 38.316C34.614 37.47 32.55 35.556 31.32 35.16" fill="#8C734B"/>
<path id="Vector_8" d="M36.282 5.406C31.23 0.816 25.374 0 21.852 0C20.616 0 19.668 0.102 19.128 0.174C18.822 0.21 18.654 0.252 18.648 0.252C18.528 0.276 18.45 0.396 18.474 0.516C18.504 0.636 18.618 0.72 18.744 0.696C18.78 0.696 18.906 0.666 19.122 0.636C19.164 0.636 19.206 0.624 19.248 0.624C19.584 0.582 20.082 0.54 20.712 0.54C23.256 0.54 27.996 1.2 33.396 5.196C37.434 8.184 39.858 11.724 41.274 14.508C41.982 15.906 42.444 17.106 42.714 17.964C42.996 18.822 43.092 19.32 43.092 19.32C43.116 19.428 43.212 19.5 43.314 19.5C43.326 19.5 43.338 19.5 43.35 19.5C43.464 19.488 43.548 19.386 43.542 19.26C42.936 10.992 36.288 5.43 36.276 5.412" fill="#8C734B"/>
<path id="Vector_9" d="M54.828 34.494C54.828 34.602 54.798 34.698 54.738 34.776C54.678 34.86 54.606 34.92 54.528 34.956C54.366 34.848 54.174 34.746 53.964 34.65C53.754 34.554 53.484 34.506 53.166 34.506C52.89 34.506 52.632 34.554 52.404 34.65C52.17 34.746 51.972 34.884 51.81 35.07C51.642 35.256 51.51 35.478 51.42 35.754C51.324 36.024 51.276 36.336 51.276 36.69C51.276 37.404 51.45 37.944 51.804 38.31C52.158 38.676 52.626 38.862 53.208 38.862C53.52 38.862 53.784 38.82 54.012 38.73C54.24 38.64 54.438 38.538 54.6 38.424C54.672 38.466 54.732 38.532 54.792 38.616C54.852 38.7 54.882 38.79 54.882 38.898C54.882 38.988 54.858 39.066 54.81 39.144C54.762 39.222 54.684 39.288 54.576 39.354C54.438 39.444 54.246 39.522 54.006 39.588C53.766 39.66 53.466 39.69 53.094 39.69C52.692 39.69 52.314 39.63 51.966 39.504C51.618 39.378 51.318 39.192 51.054 38.946C50.796 38.694 50.592 38.382 50.442 38.01C50.292 37.632 50.22 37.194 50.22 36.69C50.22 36.186 50.298 35.76 50.448 35.382C50.598 35.004 50.802 34.686 51.06 34.434C51.318 34.182 51.612 33.99 51.954 33.858C52.296 33.726 52.656 33.666 53.046 33.666C53.316 33.666 53.562 33.69 53.778 33.738C53.994 33.786 54.18 33.846 54.336 33.924C54.492 34.002 54.612 34.086 54.696 34.188C54.78 34.29 54.822 34.392 54.822 34.488" fill="#555759"/>
<path id="Vector_10" d="M59.628 35.79C59.25 35.79 58.95 35.928 58.728 36.198C58.506 36.468 58.398 36.852 58.398 37.344C58.398 37.836 58.506 38.22 58.722 38.484C58.938 38.754 59.238 38.886 59.634 38.886C60.03 38.886 60.33 38.754 60.546 38.484C60.762 38.214 60.87 37.836 60.87 37.344C60.87 36.852 60.762 36.48 60.54 36.204C60.324 35.928 60.018 35.79 59.634 35.79M61.872 37.344C61.872 37.704 61.818 38.028 61.71 38.322C61.602 38.61 61.452 38.856 61.26 39.06C61.068 39.264 60.834 39.42 60.552 39.528C60.276 39.636 59.964 39.696 59.622 39.696C59.28 39.696 58.974 39.642 58.692 39.528C58.416 39.42 58.176 39.258 57.984 39.06C57.792 38.856 57.642 38.61 57.534 38.322C57.426 38.034 57.372 37.704 57.372 37.344C57.372 36.984 57.426 36.66 57.534 36.366C57.642 36.078 57.792 35.826 57.99 35.628C58.188 35.424 58.422 35.268 58.698 35.16C58.974 35.052 59.28 34.992 59.616 34.992C59.952 34.992 60.258 35.046 60.534 35.16C60.81 35.268 61.05 35.43 61.242 35.634C61.44 35.838 61.59 36.084 61.698 36.372C61.806 36.66 61.86 36.984 61.86 37.344" fill="#555759"/>
<path id="Vector_11" d="M65.826 39.54C65.784 39.558 65.718 39.576 65.64 39.594C65.562 39.612 65.472 39.618 65.382 39.618C65.196 39.618 65.064 39.582 64.974 39.516C64.884 39.444 64.842 39.33 64.842 39.168V36.06C64.842 35.904 64.872 35.772 64.938 35.676C64.998 35.58 65.1 35.484 65.244 35.394C65.424 35.28 65.658 35.184 65.946 35.112C66.228 35.034 66.54 34.998 66.882 34.998C67.44 34.998 67.716 35.154 67.716 35.472C67.716 35.55 67.704 35.616 67.68 35.682C67.656 35.748 67.626 35.808 67.596 35.856C67.536 35.844 67.452 35.832 67.362 35.82C67.266 35.808 67.164 35.802 67.056 35.802C66.804 35.802 66.576 35.832 66.366 35.88C66.156 35.934 65.982 36 65.838 36.084V39.54H65.826Z" fill="#555759"/>
<path id="Vector_12" d="M72.228 38.886C72.636 38.886 72.966 38.76 73.206 38.514C73.446 38.262 73.566 37.866 73.566 37.326C73.566 37.05 73.53 36.81 73.464 36.618C73.392 36.42 73.302 36.264 73.182 36.138C73.062 36.012 72.924 35.928 72.768 35.874C72.606 35.82 72.432 35.796 72.252 35.796C72.048 35.796 71.88 35.82 71.736 35.868C71.592 35.916 71.472 35.97 71.364 36.036V38.64C71.472 38.718 71.598 38.778 71.742 38.826C71.886 38.874 72.054 38.898 72.234 38.898M72.384 39.696C72.18 39.696 71.994 39.678 71.814 39.636C71.64 39.594 71.484 39.546 71.358 39.48V41.262C71.316 41.28 71.25 41.298 71.172 41.316C71.094 41.334 71.004 41.34 70.908 41.34C70.728 41.34 70.59 41.304 70.5 41.238C70.41 41.166 70.368 41.046 70.368 40.878V35.982C70.368 35.844 70.392 35.73 70.446 35.646C70.494 35.562 70.59 35.478 70.728 35.394C70.902 35.292 71.118 35.202 71.376 35.124C71.634 35.046 71.922 35.004 72.246 35.004C72.57 35.004 72.882 35.052 73.164 35.142C73.446 35.232 73.692 35.376 73.902 35.562C74.112 35.754 74.274 35.994 74.394 36.288C74.514 36.582 74.574 36.93 74.574 37.332C74.574 37.734 74.52 38.076 74.406 38.37C74.298 38.664 74.142 38.91 73.95 39.108C73.758 39.306 73.524 39.456 73.26 39.552C72.99 39.648 72.696 39.696 72.372 39.696" fill="#555759"/>
<path id="Vector_13" d="M79.554 35.79C79.176 35.79 78.876 35.928 78.654 36.198C78.432 36.468 78.324 36.852 78.324 37.344C78.324 37.836 78.432 38.22 78.648 38.484C78.864 38.754 79.164 38.886 79.56 38.886C79.956 38.886 80.256 38.754 80.466 38.484C80.682 38.214 80.79 37.836 80.79 37.344C80.79 36.852 80.682 36.48 80.46 36.204C80.244 35.928 79.938 35.79 79.554 35.79ZM81.798 37.344C81.798 37.704 81.744 38.028 81.636 38.322C81.528 38.61 81.378 38.856 81.186 39.06C80.994 39.264 80.76 39.42 80.478 39.528C80.202 39.636 79.89 39.696 79.548 39.696C79.206 39.696 78.894 39.642 78.618 39.528C78.342 39.414 78.108 39.258 77.91 39.06C77.718 38.856 77.568 38.61 77.46 38.322C77.352 38.034 77.298 37.704 77.298 37.344C77.298 36.984 77.352 36.66 77.46 36.366C77.568 36.078 77.718 35.826 77.916 35.628C78.114 35.424 78.348 35.268 78.624 35.16C78.9 35.052 79.206 34.992 79.542 34.992C79.878 34.992 80.184 35.046 80.46 35.16C80.736 35.268 80.976 35.43 81.174 35.634C81.372 35.838 81.522 36.084 81.63 36.372C81.738 36.66 81.792 36.984 81.792 37.344" fill="#555759"/>
<path id="Vector_14" d="M85.752 39.54C85.71 39.558 85.644 39.576 85.566 39.594C85.488 39.612 85.398 39.618 85.308 39.618C85.122 39.618 84.99 39.582 84.9 39.516C84.81 39.444 84.768 39.33 84.768 39.168V36.06C84.768 35.904 84.798 35.772 84.864 35.676C84.924 35.58 85.026 35.484 85.17 35.394C85.35 35.28 85.584 35.184 85.872 35.112C86.154 35.034 86.466 34.998 86.808 34.998C87.366 34.998 87.642 35.154 87.642 35.472C87.642 35.55 87.63 35.616 87.606 35.682C87.582 35.748 87.552 35.808 87.522 35.856C87.462 35.844 87.378 35.832 87.288 35.82C87.192 35.808 87.09 35.802 86.982 35.802C86.73 35.802 86.502 35.832 86.292 35.88C86.082 35.934 85.908 36 85.764 36.084V39.54H85.752Z" fill="#555759"/>
<path id="Vector_15" d="M91.944 38.928C92.166 38.928 92.358 38.904 92.52 38.862C92.682 38.82 92.802 38.772 92.868 38.718V37.512L91.836 37.614C91.548 37.644 91.326 37.71 91.182 37.806C91.038 37.902 90.966 38.052 90.966 38.256C90.966 38.46 91.044 38.628 91.206 38.742C91.368 38.856 91.608 38.916 91.944 38.916M91.926 34.992C92.514 34.992 92.982 35.118 93.33 35.376C93.678 35.634 93.852 36.036 93.852 36.582V38.79C93.852 38.934 93.822 39.048 93.756 39.126C93.69 39.204 93.6 39.282 93.486 39.348C93.324 39.444 93.108 39.528 92.85 39.594C92.592 39.666 92.292 39.696 91.95 39.696C91.338 39.696 90.858 39.576 90.516 39.336C90.174 39.096 90 38.742 90 38.274C90 37.86 90.132 37.536 90.402 37.32C90.672 37.098 91.056 36.96 91.56 36.912L92.88 36.78V36.57C92.88 36.294 92.79 36.09 92.61 35.964C92.43 35.838 92.178 35.772 91.854 35.772C91.602 35.772 91.356 35.808 91.122 35.874C90.888 35.946 90.678 36.024 90.498 36.114C90.432 36.066 90.378 36 90.336 35.928C90.294 35.856 90.27 35.772 90.27 35.688C90.27 35.58 90.294 35.49 90.348 35.424C90.402 35.358 90.486 35.298 90.6 35.244C90.78 35.154 90.978 35.088 91.206 35.052C91.434 35.01 91.674 34.992 91.926 34.992Z" fill="#555759"/>
<path id="Vector_16" d="M98.208 38.748C98.34 38.844 98.526 38.892 98.766 38.892C98.874 38.892 98.988 38.874 99.108 38.844C99.228 38.814 99.33 38.772 99.42 38.73C99.462 38.778 99.504 38.838 99.54 38.904C99.576 38.964 99.594 39.042 99.594 39.132C99.594 39.294 99.51 39.432 99.342 39.54C99.174 39.648 98.922 39.702 98.58 39.702C98.106 39.702 97.728 39.594 97.446 39.384C97.164 39.174 97.026 38.826 97.026 38.34V33.918C97.068 33.906 97.134 33.888 97.218 33.87C97.302 33.852 97.386 33.84 97.482 33.84C97.662 33.84 97.8 33.876 97.884 33.942C97.968 34.014 98.01 34.128 98.01 34.29V35.226H99.48C99.504 35.262 99.528 35.316 99.552 35.388C99.576 35.46 99.588 35.532 99.588 35.604C99.588 35.874 99.468 36.012 99.234 36.012H98.01V38.268C98.01 38.496 98.076 38.658 98.208 38.748Z" fill="#555759"/>
<path id="Vector_17" d="M103.536 39.5397C103.494 39.5577 103.428 39.5757 103.35 39.5937C103.272 39.6117 103.182 39.6177 103.08 39.6177C102.894 39.6177 102.762 39.5817 102.672 39.5157C102.582 39.4437 102.54 39.3297 102.54 39.1677V35.1597C102.588 35.1477 102.654 35.1297 102.732 35.1117C102.81 35.0937 102.9 35.0817 103.002 35.0817C103.188 35.0817 103.32 35.1177 103.404 35.1837C103.488 35.2557 103.53 35.3757 103.53 35.5437V39.5397H103.536ZM102.432 33.7617C102.432 33.5997 102.486 33.4617 102.6 33.3477C102.714 33.2397 102.858 33.1797 103.038 33.1797C103.218 33.1797 103.356 33.2337 103.464 33.3477C103.572 33.4557 103.626 33.5937 103.626 33.7617C103.626 33.9297 103.572 34.0617 103.464 34.1757C103.356 34.2837 103.212 34.3437 103.038 34.3437C102.864 34.3437 102.714 34.2897 102.6 34.1757C102.486 34.0677 102.432 33.9297 102.432 33.7617Z" fill="#555759"/>
<path id="Vector_18" d="M108.792 35.79C108.414 35.79 108.114 35.928 107.892 36.198C107.67 36.468 107.562 36.852 107.562 37.344C107.562 37.836 107.67 38.22 107.886 38.484C108.102 38.754 108.402 38.886 108.798 38.886C109.194 38.886 109.494 38.754 109.704 38.484C109.92 38.214 110.028 37.836 110.028 37.344C110.028 36.852 109.92 36.48 109.704 36.204C109.488 35.928 109.182 35.79 108.798 35.79M111.036 37.344C111.036 37.704 110.982 38.028 110.874 38.322C110.766 38.61 110.616 38.856 110.424 39.06C110.232 39.264 109.998 39.42 109.716 39.528C109.44 39.636 109.128 39.696 108.786 39.696C108.444 39.696 108.132 39.642 107.856 39.528C107.58 39.414 107.346 39.258 107.148 39.06C106.956 38.856 106.806 38.61 106.698 38.322C106.59 38.034 106.536 37.704 106.536 37.344C106.536 36.984 106.59 36.66 106.698 36.366C106.806 36.078 106.956 35.826 107.154 35.628C107.352 35.424 107.586 35.268 107.862 35.16C108.138 35.052 108.444 34.992 108.78 34.992C109.116 34.992 109.422 35.046 109.698 35.16C109.974 35.268 110.214 35.43 110.412 35.634C110.61 35.838 110.76 36.084 110.868 36.372C110.976 36.66 111.03 36.984 111.03 37.344" fill="#555759"/>
<path id="Vector_19" d="M116.736 36.006C116.562 35.862 116.328 35.79 116.028 35.79C115.806 35.79 115.608 35.82 115.434 35.874C115.26 35.934 115.11 35.994 114.984 36.066V39.546C114.942 39.564 114.876 39.582 114.798 39.6C114.72 39.618 114.63 39.624 114.54 39.624C114.354 39.624 114.222 39.588 114.132 39.522C114.042 39.45 114 39.336 114 39.174V36.048C114 35.904 114.03 35.784 114.084 35.7C114.138 35.61 114.234 35.526 114.366 35.436C114.54 35.328 114.774 35.232 115.056 35.142C115.338 35.052 115.662 35.01 116.022 35.01C116.634 35.01 117.114 35.148 117.462 35.424C117.81 35.7 117.984 36.114 117.984 36.672V39.564C117.942 39.582 117.876 39.6 117.792 39.618C117.708 39.636 117.624 39.642 117.528 39.642C117.348 39.642 117.21 39.606 117.12 39.54C117.03 39.468 116.988 39.354 116.988 39.192V36.72C116.988 36.408 116.898 36.18 116.73 36.036" fill="#555759"/>
<path id="Vector_20" d="M94.3739 25.3016C94.3019 25.2536 94.2119 25.2536 94.1399 25.3016C92.2859 26.5496 89.9279 27.2996 87.3479 27.2996C81.4379 27.2996 76.6319 24.1736 76.6319 19.3256C76.6319 14.4776 80.8919 10.9796 86.8019 10.9796C89.3399 10.9796 91.9259 11.7236 93.7859 12.9416C93.9479 13.0496 94.1699 12.9896 94.2479 12.8096C94.5659 12.1196 95.0039 11.2436 95.3519 10.6796C95.4539 10.5176 95.3879 10.3016 95.2079 10.2236C94.0259 9.68956 92.7839 9.25756 91.4939 8.90956C90.0839 8.53756 88.3559 8.35156 86.3159 8.35156C84.1739 8.35156 82.2179 8.62756 80.4659 9.19156C78.7199 9.75556 77.2139 10.5296 75.9839 11.5076C74.7539 12.4916 73.8059 13.6616 73.1459 15.0176C72.4859 16.3736 72.1499 17.8436 72.1499 19.4336C72.1499 20.7596 72.3839 22.0796 72.8459 23.3936C73.3139 24.7016 74.0939 25.8836 75.1799 26.9216C76.2779 27.9656 77.7179 28.7876 79.5059 29.3876C81.2939 29.9876 83.4959 30.2936 86.1119 30.2936C87.7619 30.2936 89.1779 30.1316 90.3779 29.8016C90.6479 29.7236 90.9059 29.6456 91.1579 29.5616C92.0999 29.2436 92.8799 28.5776 93.3359 27.6956L94.4399 25.5656C94.4879 25.4756 94.4579 25.3616 94.3739 25.3016Z" fill="#E72629"/>
<path id="Vector_21" d="M111.906 30.2997C115.326 30.2997 117.294 29.9577 118.788 29.5977C119.244 29.4897 119.562 29.0817 119.562 28.6137V19.0197C119.562 18.6357 119.25 18.3297 118.872 18.3297H111.666C111.54 18.3297 111.426 18.4017 111.372 18.5097L110.436 20.7177C110.328 20.9337 110.484 21.1917 110.724 21.1917H115.98V26.6457C115.086 26.9457 114.066 27.1737 113.07 27.2637C112.632 27.2817 112.134 27.2937 111.558 27.2937C111.348 27.2937 111.138 27.2937 110.934 27.2817V27.2937C105.462 26.9817 101.232 23.9097 101.232 19.3257C101.232 14.4837 105.492 10.9797 111.402 10.9797C113.94 10.9797 116.526 11.7237 118.386 12.9357C118.548 13.0437 118.77 12.9837 118.848 12.8037C119.166 12.1137 119.604 11.2377 119.952 10.6737C120.054 10.5117 119.982 10.2957 119.808 10.2177C118.626 9.6837 117.384 9.2457 116.094 8.9037C114.684 8.5317 112.956 8.3457 110.91 8.3457C108.768 8.3457 106.812 8.6217 105.06 9.1857C103.314 9.7497 101.808 10.5237 100.578 11.5017C99.3481 12.4857 98.4001 13.6557 97.7401 15.0117C97.0801 16.3677 96.7441 17.8377 96.7441 19.4277C96.7441 20.7537 96.9781 22.0737 97.4401 23.3877C97.9081 24.6957 98.6881 25.8777 99.7741 26.9157C100.866 27.9597 102.312 28.7817 104.1 29.3817C105.888 29.9817 108.09 30.2877 110.706 30.2877H111.906V30.2997Z" fill="#E72629"/>
<path id="Vector_22" d="M69.5339 28.1815C68.9579 27.5335 68.2859 26.7715 67.5239 25.9015C66.7619 25.0315 65.9519 24.1255 65.0879 23.1655C64.9259 22.9855 64.7639 22.8115 64.6079 22.6375C64.5959 22.6255 64.5899 22.6195 64.5779 22.6075C61.2779 19.5115 58.7759 19.4455 58.1699 19.4815C58.1339 19.4815 58.1159 19.4335 58.1459 19.4155L65.4299 14.3395L72.4259 9.46152C72.7979 9.20352 72.6119 8.62152 72.1619 8.62152H67.4939C67.3859 8.62152 67.2779 8.66352 67.1939 8.72952C65.5139 10.1575 62.9039 12.3415 61.6919 13.3495C60.3539 14.4655 59.1779 15.4255 58.1699 16.2355C57.1619 17.0335 56.3399 17.6455 55.6979 18.0775C55.6079 18.1375 55.5239 18.1915 55.4399 18.2455C55.1339 18.4435 54.7319 18.2215 54.7319 17.8555V9.06552C54.7319 8.81352 54.5279 8.60352 54.2699 8.60352H50.5259C50.2679 8.60352 50.0639 8.80752 50.0639 9.06552V28.8835C50.0639 28.8835 50.0639 28.9015 50.0639 28.9135C50.0519 29.0935 50.0399 29.2795 50.0279 29.4535C50.0099 29.7235 50.2199 29.9455 50.4899 29.9455H51.0719C51.3059 29.9455 51.5339 29.9395 51.7379 29.9335H52.2959C52.4879 29.9335 52.6739 29.9335 52.8599 29.9455H54.2759C54.2759 29.9455 54.2759 29.9395 54.2759 29.9335C54.5339 29.9335 54.7379 29.7295 54.7379 29.4715V21.2275C54.7379 20.8555 55.1579 20.6335 55.4639 20.8495L55.8959 21.1495C58.6979 23.1175 61.1939 25.4815 63.3179 28.1695L64.2959 29.4055C64.5659 29.7415 64.9679 29.9395 65.3999 29.9395H66.9599C67.4159 29.9335 67.8419 29.9275 68.1479 29.9275H68.3939C66.2279 29.9275 67.9979 29.9275 68.0399 29.9275C68.0999 29.9275 70.9259 29.9275 70.9799 29.9275C70.9919 29.9275 68.8619 29.9275 70.6199 29.9275C70.7819 29.9275 70.8659 29.7415 70.7639 29.6215C70.4579 29.2495 69.9539 28.6435 69.5399 28.1755" fill="#E72629"/>
</g>
<defs>
<clipPath id="clip0_2001_2045">
<rect width="120" height="43.554" fill="white"/>
</clipPath>
</defs>
</svg>
