<svg xmlns="http://www.w3.org/2000/svg" xmlns:xlink="http://www.w3.org/1999/xlink" width="128.1mm" height="21.7326mm" viewBox="0,0,256,43.42188"><g fill="#006634" fill-rule="none" stroke="none" stroke-width="1" stroke-linecap="butt" stroke-linejoin="miter" stroke-miterlimit="10" stroke-dasharray="" stroke-dashoffset="0" font-family="none" font-weight="none" font-size="none" text-anchor="none" style="mix-blend-mode: normal"><g transform="translate(0,-0.0047) scale(0.02021,0.02021)"><g id="Layer_x0020_1"><path d="M6040.59,334.95c29.21,26.23 224,89.26 222.81,318.18c-1.22,232.49 -202.28,293.35 -225.63,318.23l-0.33,1172.32h544.29v-1490.53l468.94,1490.53h468.93l113.7,-371.98c36.72,-129.44 78.82,-243.52 114.16,-371.51c32.95,-119.32 82.06,-248.1 115.46,-370.22l114.54,-362.77c0.53,-1.26 1.57,-3.91 2.7,-5.68v1482.16h552.67v-2143.69h-887.62c-4.23,50.85 -159.98,589.5 -179.24,666.51c-53.63,214.45 -132.21,456.23 -180.83,664.91l-393.56,-1331.43h-854.12l3.15,334.95z" fill-rule="evenodd"></path><path d="M11204.06,1038.35c-48.82,92.26 -102.22,182.92 -150.63,276.43l-452.28,828.9h636.4l248.52,-505.12c18.48,-36.94 28.62,-66.26 47.33,-103.39c23.6,-46.81 87.84,-161.34 97.72,-203.75l401.94,812.26h636.4c-7.12,-30.57 -154.28,-294.36 -180.69,-338.48c-15.52,-25.91 -23.46,-47.44 -37.4,-71.46l-77.89,-139.83c-13.9,-27.59 -20.08,-39.39 -35.44,-65.05l-263.12,-482.14c0,-32.63 13.66,-39.8 27.74,-64.37l457.99,-848.32c11.76,-23.85 20.68,-41.99 35.07,-65.42c14.03,-22.86 25.33,-40.54 31.87,-68.62h-628.03l-178.63,390.79c-18.56,36.81 -28.28,58.02 -45.04,97.31c-15.33,35.9 -31.39,59.74 -46.71,95.64c-16.07,37.66 -75.07,178.17 -98.06,195.02l-360.07,-778.76h-636.41l427.17,778.66c45.6,88.09 96.21,172.68 142.25,259.69z" fill-rule="evenodd"></path><path d="M9557.61,577.79c-5.71,-73.65 -50.66,-216.08 -71.41,-292c-25.1,-91.86 -53.01,-192.79 -73.53,-285.79h-285.3c-1.17,52.61 -392.22,1484.18 -421.99,1604.46c-15.77,63.69 -138.04,493.6 -139.06,539.23h569.42l421.87,-1565.9z" fill-rule="evenodd"></path><path d="M0,1447.71h379.23c75.27,0 131.13,2.25 167.99,6.74c37.09,4.66 69.98,14.12 99.12,28.39c29.14,14.44 53.41,33.53 72.84,57.43c19.42,23.9 29.14,50.86 29.14,80.54c0,32.08 -11.92,61.76 -35.76,88.56c-23.85,26.95 -56.29,47.01 -97.12,60.48c57.6,12.35 101.76,33.21 132.89,62.72c30.91,29.52 46.36,64.18 46.36,104.12c0,31.44 -9.94,61.92 -30.03,91.6c-20.09,29.67 -47.45,53.42 -82.33,71.23c-34.67,17.64 -77.49,28.55 -128.48,32.73c-31.78,2.4 -108.81,4.01 -230.9,4.65h-322.94v-689.19zM192.05,1562.26v158.82h125.38c74.38,0 120.75,-0.8 138.85,-2.4c32.66,-2.73 58.49,-10.91 77.25,-24.55c18.77,-13.64 28.04,-31.44 28.04,-53.59c0,-21.33 -8.17,-38.5 -24.28,-51.82c-16.11,-13.31 -40.17,-21.33 -71.96,-24.06c-18.99,-1.6 -73.51,-2.4 -163.35,-2.4zM192.05,1835.63v184.81h177.47c68.88,0 112.8,-1.44 131.33,-4.17c28.48,-3.85 51.67,-13 69.55,-27.59c17.88,-14.76 26.93,-34.17 26.93,-58.72c0,-20.85 -6.84,-38.33 -20.76,-52.77c-13.69,-14.44 -33.78,-25.03 -59.82,-31.61c-26.05,-6.58 -82.79,-9.94 -169.97,-9.94h-154.73zM949.85,2136.91v-689.19h192.05v689.19zM1284.72,1796.49c0,-70.27 14.56,-129.31 43.48,-177.11c21.42,-35.13 50.99,-66.74 88.31,-94.65c37.3,-27.91 78.14,-48.61 122.5,-62.25c59.16,-18.13 127.37,-27.27 204.64,-27.27c139.95,0 251.64,31.6 335.74,94.65c83.88,63.21 125.82,150.97 125.82,263.42c0,111.5 -41.73,198.77 -124.94,261.66c-83.22,63.05 -194.69,94.49 -333.98,94.49c-141.05,0 -253.41,-31.28 -336.63,-94.01c-83.23,-62.57 -124.94,-148.88 -124.94,-258.93zM1482.06,1791.83c0,78.13 24.94,137.33 74.61,177.76c49.66,40.26 112.81,60.48 189.18,60.48c76.59,0 139.28,-20.06 188.51,-59.99c49.01,-40.11 73.51,-100.11 73.51,-180.16c0,-79.09 -23.85,-138.13 -71.74,-176.96c-47.69,-38.98 -111.04,-58.39 -190.28,-58.39c-79.03,0 -142.83,19.73 -191.17,59.03c-48.35,39.46 -72.62,98.82 -72.62,178.23zM2567.9,2136.91v-572.73h-280.79v-116.47h752.29v116.47h-279.45v572.73zM3163.69,2136.91v-689.19h701.96v116.47h-509.91v153.05h474.16v116.47h-474.16v186.74h528.46v116.47h-720.51zM4653.71,1882.79l185.41,41.39c-28.46,75.89 -75.94,132.19 -142.15,169.09c-66.23,36.74 -150.1,55.19 -251.86,55.19c-126.05,0 -229.58,-31.28 -310.81,-93.85c-81.01,-62.57 -121.64,-148.08 -121.64,-256.68c0,-114.71 40.85,-203.91 122.29,-267.43c81.46,-63.54 188.74,-95.29 321.63,-95.29c116.1,0 210.36,25.02 282.77,74.92c43.26,29.51 75.49,71.87 97.12,127.22l-189.4,32.73c-11.26,-35.61 -34.66,-63.85 -70.2,-84.54c-35.74,-20.7 -79.02,-30.97 -129.78,-30.97c-70.43,0 -127.6,18.29 -171.31,55.03c-43.93,36.57 -65.77,95.94 -65.77,178.07c0,86.95 21.62,149.04 64.66,185.93c43.27,37.06 99.34,55.51 168.44,55.51c50.99,0 94.91,-11.71 131.55,-35.3c36.65,-23.58 63.14,-60.48 79.03,-111.02zM5003.59,2136.91v-689.19h192.05v271.44h373.5v-271.44h192.04v689.19h-192.04v-301.28h-373.5v301.28z" fill-rule="nonzero"></path><path d="M0,23.63h419.6l443.74,810.37v-810.37h292.08v1304.55h-337.75l-525.58,-944.34v944.34h-292.09zM1465.61,23.63h377.38v745.5c0,104.97 6.46,178.31 18.95,219.71c12.5,41.39 38.77,72.69 78.84,94.2c40.07,21.18 88.76,31.95 146.9,31.95c63.34,0 113.31,-11.74 150.36,-35.21c36.62,-23.8 59.44,-55.09 68.07,-93.88c8.18,-38.79 12.48,-111.16 12.48,-216.77v-745.5h317.93v733.77c0,146.36 -11.2,255.56 -33.6,327.61c-21.98,72.04 -78.84,133.65 -170.17,185.47c-91.33,51.51 -216.7,77.26 -376.52,77.26c-149.92,0 -267.52,-18.91 -353.26,-56.72c-86.16,-38.15 -146.9,-91.28 -183.1,-159.73c-36.18,-68.46 -54.27,-189.39 -54.27,-362.49v-745.17zM2768.8,23.63h1072.71v242.53h-351.55v1062.02h-377.38v-1062.02h-343.78zM3975.07,23.63h541.09c104.68,0 185.23,3.59 241.24,11.09c56.01,7.17 112.44,27.05 169.75,59c56.85,32.27 101.66,76.28 133.97,132.03c32.31,55.74 48.69,118.33 48.69,187.76c0,162.99 -80.57,277.73 -241.68,343.9l316.63,570.78h-409.27l-230.47,-516.34h-192.56v516.34h-377.38v-1304.55zM4352.45,234.87v365.74h166.29c147.77,0 221.43,-62.6 221.43,-188.09c0,-43.35 -10.77,-78.88 -32.74,-106.59c-21.98,-27.71 -47.39,-46.3 -76.25,-56.39c-28.87,-9.78 -71.52,-14.67 -127.53,-14.67zM5383.8,23.63h377.38v321.63l-0.07,0.05c-209.72,99.99 -261.39,379.75 -71.31,545.3c22.39,19.5 56.25,36.48 70.11,54.11l1.27,0.28v383.18h-377.38z" fill-rule="evenodd"></path><path d="M10023.36,2136.7l518.49,-0.07c-42.95,-207.28 -112.16,-432.71 -165.16,-638.99l-333.05,-1274.77c-13.45,-53.4 -29.62,-105.26 -42.07,-159.54c-17.25,-75.16 3.99,-61.78 -137.31,-61.72c-136.26,0.06 -272.61,-0.52 -408.85,0.1c6.45,65.34 48.59,194.88 67.09,265.01c149.61,567.14 313.45,1174.87 453.84,1739.48c5.89,23.7 11.58,42.43 17.56,66.54c7.73,31.25 5.1,49.84 29.47,63.95z" fill-rule="evenodd"></path></g></g></g></svg>