<?xml version="1.0" encoding="utf-8"?>
<!-- Generator: Adobe Illustrator 24.0.3, SVG Export Plug-In . SVG Version: 6.00 Build 0)  -->
<svg version="1.1" id="Layer_1" xmlns="http://www.w3.org/2000/svg" xmlns:xlink="http://www.w3.org/1999/xlink" x="0px" y="0px"
	 viewBox="0 0 239 66" style="enable-background:new 0 0 239 66;" xml:space="preserve">
<style type="text/css">
	.st0{fill:#0A1F89;}
	.st1{fill:url(#SVGID_1_);}
	.st2{fill:url(#SVGID_2_);}
	.st3{clip-path:url(#SVGID_4_);fill:url(#SVGID_5_);}
</style>
<g>
	<g>
		<g>
			<g>
				<path class="st0" d="M90.78,24.57c0-2.01,0.21-3.98,0.62-5.91c0.41-1.93,1.03-3.76,1.86-5.48c0.82-1.72,1.86-3.3,3.1-4.74
					c1.24-1.44,2.7-2.68,4.37-3.72c1.67-1.04,3.54-1.86,5.61-2.44c2.07-0.59,4.36-0.88,6.87-0.88c2.52,0,4.83,0.29,6.93,0.88
					c2.1,0.59,3.98,1.4,5.66,2.44c1.68,1.04,3.14,2.28,4.4,3.72c1.26,1.44,2.31,3.02,3.15,4.74c0.84,1.72,1.46,3.55,1.88,5.48
					c0.41,1.93,0.62,3.9,0.62,5.91c0,2.01-0.21,3.97-0.62,5.88c-0.41,1.92-1.04,3.73-1.88,5.43c-0.84,1.71-1.89,3.27-3.15,4.7
					c-1.26,1.43-2.73,2.66-4.4,3.69c-1.67,1.03-3.56,1.84-5.66,2.41c-2.1,0.57-4.41,0.86-6.93,0.86c-2.5,0-4.79-0.29-6.87-0.86
					c-2.07-0.57-3.95-1.38-5.61-2.41c-1.67-1.03-3.12-2.26-4.37-3.69c-1.24-1.43-2.28-2.99-3.1-4.7c-0.82-1.7-1.44-3.52-1.86-5.43
					C90.98,28.54,90.78,26.58,90.78,24.57z M100.6,24.57c0,1.81,0.23,3.6,0.7,5.35c0.47,1.76,1.21,3.33,2.23,4.72
					c1.02,1.39,2.32,2.51,3.92,3.36c1.59,0.85,3.51,1.28,5.76,1.28c2.29,0,4.25-0.43,5.87-1.28c1.62-0.85,2.95-1.97,3.97-3.36
					c1.03-1.39,1.77-2.96,2.24-4.72c0.47-1.76,0.7-3.54,0.7-5.35c0-1.21-0.1-2.41-0.31-3.62c-0.2-1.21-0.52-2.36-0.96-3.45
					c-0.44-1.09-1-2.11-1.67-3.06c-0.68-0.94-1.49-1.77-2.44-2.47c-0.95-0.7-2.04-1.25-3.27-1.64c-1.23-0.39-2.61-0.59-4.13-0.59
					c-1.49,0-2.84,0.2-4.05,0.59c-1.21,0.39-2.28,0.94-3.21,1.64c-0.94,0.7-1.74,1.52-2.41,2.47c-0.67,0.94-1.23,1.96-1.66,3.06
					c-0.44,1.09-0.76,2.24-0.96,3.45C100.7,22.16,100.6,23.37,100.6,24.57z"/>
				<path class="st0" d="M151.66,2.39v35.99h20.98v8.35h-30.8V2.39H151.66z"/>
				<path class="st0" d="M188.01,2.39v44.34h-9.64V2.39H188.01z"/>
				<path class="st0" d="M226.58,17.65c-0.15-1.1-0.51-2.14-1.09-3.11c-0.57-0.97-1.29-1.82-2.16-2.55
					c-0.87-0.72-1.85-1.3-2.95-1.72c-1.1-0.42-2.26-0.63-3.46-0.63c-1.45,0-2.75,0.2-3.92,0.59c-1.16,0.39-2.18,0.94-3.07,1.63
					c-0.88,0.69-1.64,1.52-2.27,2.47c-0.63,0.95-1.15,1.99-1.56,3.11c-0.41,1.12-0.71,2.31-0.89,3.57c-0.19,1.25-0.28,2.52-0.28,3.8
					c0,1.22,0.09,2.44,0.28,3.66c0.19,1.21,0.49,2.37,0.89,3.46c0.41,1.09,0.93,2.11,1.56,3.04c0.63,0.94,1.39,1.75,2.27,2.43
					c0.88,0.69,1.9,1.23,3.07,1.62c1.16,0.39,2.47,0.59,3.92,0.59c1.49,0,2.83-0.25,4.01-0.76c1.18-0.51,2.19-1.18,3.04-2.01
					c0.85-0.84,1.54-1.8,2.05-2.89c0.51-1.09,0.84-2.21,0.97-3.37h9.39c-0.24,2.57-0.88,4.9-1.92,7.02
					c-1.04,2.11-2.41,3.93-4.11,5.44c-1.7,1.52-3.68,2.69-5.95,3.52c-2.27,0.83-4.76,1.24-7.48,1.24c-2.28,0-4.4-0.27-6.36-0.81
					c-1.96-0.54-3.75-1.31-5.35-2.31c-1.61-1-3.03-2.19-4.28-3.59c-1.24-1.4-2.29-2.95-3.15-4.65c-0.85-1.7-1.5-3.54-1.94-5.5
					c-0.44-1.96-0.66-4.01-0.66-6.13c0-2.19,0.22-4.28,0.66-6.28c0.44-2,1.08-3.86,1.94-5.59c0.85-1.73,1.9-3.3,3.15-4.71
					c1.24-1.41,2.67-2.62,4.28-3.62c1.61-1,3.39-1.78,5.35-2.32c1.96-0.54,4.08-0.81,6.36-0.81c2.43,0,4.73,0.37,6.91,1.1
					c2.18,0.73,4.12,1.79,5.83,3.17c1.7,1.38,3.11,3.07,4.22,5.08c1.11,2.01,1.81,4.29,2.12,6.84H226.58z"/>
			</g>
		</g>
		<g>
			<g>
				<path class="st0" d="M94.46,57.06l2.32,6.09h-1.39l-0.48-1.36h-2.26l-0.49,1.36h-1.37l2.32-6.09H94.46z M94.57,60.82l-0.39-1.09
					c-0.17-0.46-0.3-0.9-0.4-1.32c-0.04,0.15-0.1,0.36-0.2,0.66c-0.07,0.22-0.15,0.44-0.23,0.67l-0.39,1.09H94.57z"/>
				<path class="st0" d="M101.72,58.75v0.6c0.36-0.48,0.83-0.72,1.41-0.72c0.58,0,1,0.24,1.23,0.73c0.37-0.49,0.85-0.73,1.44-0.73
					c0.48,0,0.85,0.14,1.11,0.41c0.26,0.27,0.39,0.65,0.39,1.15v2.96h-1.21v-2.62c0-0.3-0.03-0.51-0.1-0.62
					c-0.12-0.19-0.32-0.29-0.63-0.29c-0.36,0-0.61,0.15-0.74,0.47c-0.05,0.12-0.08,0.35-0.08,0.68v2.39h-1.21v-2.68
					c0-0.27-0.03-0.46-0.09-0.57c-0.1-0.19-0.3-0.29-0.58-0.29c-0.38,0-0.64,0.16-0.78,0.48c-0.06,0.13-0.09,0.36-0.09,0.67v2.39
					h-1.21v-4.4H101.72z"/>
				<path class="st0" d="M111.73,61.78h1.16c-0.12,0.46-0.36,0.82-0.74,1.08c-0.37,0.27-0.82,0.4-1.34,0.4
					c-0.68,0-1.23-0.21-1.64-0.63c-0.41-0.42-0.62-0.98-0.62-1.68c0-0.67,0.21-1.22,0.63-1.66c0.42-0.44,0.95-0.66,1.6-0.66
					c0.65,0,1.17,0.23,1.57,0.67c0.4,0.45,0.6,1.04,0.6,1.78v0.18h-3.16c0.03,0.76,0.37,1.14,1.03,1.14
					C111.26,62.4,111.56,62.2,111.73,61.78z M109.8,60.49h1.93c-0.07-0.66-0.39-0.99-0.95-0.99c-0.27,0-0.49,0.09-0.67,0.27
					C109.93,59.94,109.83,60.18,109.8,60.49z"/>
				<path class="st0" d="M115.4,58.75v0.6c0.36-0.48,0.83-0.72,1.41-0.72c0.58,0,1,0.24,1.23,0.73c0.37-0.49,0.85-0.73,1.44-0.73
					c0.48,0,0.85,0.14,1.11,0.41c0.26,0.27,0.39,0.65,0.39,1.15v2.96h-1.21v-2.62c0-0.3-0.03-0.51-0.1-0.62
					c-0.12-0.19-0.32-0.29-0.63-0.29c-0.36,0-0.61,0.15-0.74,0.47c-0.06,0.12-0.08,0.35-0.08,0.68v2.39H117v-2.68
					c0-0.27-0.03-0.46-0.09-0.57c-0.1-0.19-0.3-0.29-0.58-0.29c-0.38,0-0.64,0.16-0.78,0.48c-0.06,0.13-0.09,0.36-0.09,0.67v2.39
					h-1.21v-4.4H115.4z"/>
				<path class="st0" d="M123.71,57.07v2.21c0.33-0.44,0.79-0.67,1.39-0.67c0.56,0,1.01,0.21,1.36,0.63
					c0.35,0.42,0.52,0.96,0.52,1.63c0,0.72-0.18,1.29-0.54,1.73c-0.36,0.44-0.83,0.66-1.42,0.66c-0.62,0-1.08-0.22-1.37-0.67v0.56
					h-1.15v-6.08H123.71z M124.71,59.57c-0.32,0-0.58,0.12-0.77,0.36c-0.19,0.24-0.29,0.56-0.29,0.97c0,0.43,0.09,0.77,0.28,1.02
					c0.19,0.25,0.44,0.37,0.77,0.37c0.33,0,0.59-0.12,0.78-0.37c0.19-0.25,0.28-0.58,0.28-1.02c0-0.4-0.1-0.72-0.29-0.97
					C125.28,59.69,125.03,59.57,124.71,59.57z"/>
				<path class="st0" d="M131.21,61.78h1.16c-0.12,0.46-0.36,0.82-0.74,1.08c-0.37,0.27-0.82,0.4-1.34,0.4
					c-0.68,0-1.23-0.21-1.64-0.63c-0.41-0.42-0.62-0.98-0.62-1.68c0-0.67,0.21-1.22,0.63-1.66c0.42-0.44,0.95-0.66,1.6-0.66
					c0.65,0,1.17,0.23,1.57,0.67c0.4,0.45,0.6,1.04,0.6,1.78v0.18h-3.16c0.03,0.76,0.37,1.14,1.03,1.14
					C130.74,62.4,131.04,62.2,131.21,61.78z M129.28,60.49h1.93c-0.07-0.66-0.39-0.99-0.95-0.99c-0.27,0-0.49,0.09-0.67,0.27
					C129.41,59.94,129.31,60.18,129.28,60.49z"/>
				<path class="st0" d="M136.57,58.67v1.11c-0.18-0.03-0.34-0.05-0.47-0.05c-0.47,0-0.8,0.19-1,0.57
					c-0.11,0.21-0.16,0.54-0.16,0.99v1.84h-1.21v-4.4h1.15v0.81c0.32-0.6,0.79-0.9,1.42-0.9C136.32,58.66,136.41,58.66,136.57,58.67
					z"/>
				<path class="st0" d="M142.45,58.63c0.67,0,1.21,0.21,1.62,0.64c0.41,0.43,0.62,0.99,0.62,1.69c0,0.7-0.21,1.26-0.62,1.68
					c-0.42,0.42-0.97,0.63-1.65,0.63c-0.68,0-1.23-0.21-1.66-0.64c-0.42-0.43-0.63-0.98-0.63-1.67c0-0.71,0.21-1.27,0.63-1.7
					C141.18,58.84,141.74,58.63,142.45,58.63z M142.4,59.52c-0.33,0-0.6,0.13-0.78,0.38c-0.19,0.26-0.28,0.61-0.28,1.05
					c0,0.44,0.09,0.79,0.28,1.04c0.19,0.25,0.45,0.38,0.79,0.38c0.33,0,0.59-0.13,0.78-0.37c0.19-0.25,0.28-0.6,0.28-1.04
					c0-0.46-0.09-0.81-0.28-1.06C143.01,59.65,142.74,59.52,142.4,59.52z"/>
				<path class="st0" d="M147.36,58.75h0.87v0.81h-0.87v3.59h-1.2v-3.59h-0.72v-0.81h0.72v-0.23c0-0.52,0.11-0.89,0.33-1.1
					c0.26-0.25,0.65-0.37,1.19-0.37c0.02,0,0.09,0,0.2,0s0.2,0,0.27,0h0.05l0.05,0.03h0.06v0.89c-0.22,0-0.35,0-0.4,0
					c-0.22,0-0.37,0.03-0.44,0.09c-0.07,0.06-0.11,0.18-0.11,0.35V58.75z"/>
				<path class="st0" d="M156.52,57.07v1.12h-2.95v1.41h2.57v1.05h-2.57v2.5h-1.32v-6.08H156.52z"/>
				<path class="st0" d="M161.85,58.75v4.4h-1.15v-0.62c-0.35,0.49-0.84,0.74-1.46,0.74c-0.56,0-0.98-0.19-1.25-0.56
					c-0.18-0.25-0.28-0.64-0.28-1.18v-2.79h1.21v2.43c0,0.34,0.02,0.57,0.06,0.69c0.1,0.27,0.33,0.41,0.71,0.41
					c0.39,0,0.66-0.17,0.83-0.51c0.08-0.16,0.12-0.44,0.12-0.84v-2.19H161.85z"/>
				<path class="st0" d="M164.61,58.75v4.74c0,0.84-0.49,1.26-1.47,1.26c-0.04,0-0.2-0.01-0.48-0.02v-0.98c0.06,0,0.13,0,0.22,0
					c0.29,0,0.46-0.09,0.49-0.28c0.02-0.1,0.03-0.33,0.03-0.7v-4.02H164.61z M164.61,57.07v1.03h-1.21v-1.03H164.61z"/>
				<path class="st0" d="M167.38,57.07v1.03h-1.21v-1.03H167.38z M167.38,58.75v4.4h-1.21v-4.4H167.38z"/>
				<path class="st0" d="M171.77,57.07h2.44c0.74,0,1.28,0.11,1.62,0.35c0.53,0.35,0.79,0.89,0.79,1.6c0,0.64-0.22,1.14-0.66,1.5
					c-0.35,0.29-0.86,0.44-1.51,0.44h-1.37v2.19h-1.32V57.07z M173.09,58.19v1.72h1.19c0.7,0,1.05-0.3,1.05-0.88
					c0-0.29-0.11-0.52-0.34-0.67c-0.16-0.11-0.42-0.16-0.78-0.16H173.09z"/>
				<path class="st0" d="M179.13,57.07v2.28c0.36-0.48,0.82-0.72,1.38-0.72c0.61,0,1.05,0.21,1.31,0.62
					c0.15,0.24,0.23,0.61,0.23,1.1v2.8h-1.21v-2.59c0-0.34-0.05-0.57-0.15-0.69c-0.13-0.17-0.34-0.26-0.62-0.26
					c-0.46,0-0.75,0.22-0.88,0.65c-0.04,0.13-0.06,0.38-0.06,0.74v2.15h-1.21v-6.08H179.13z"/>
				<path class="st0" d="M187.57,63.15h-1.23c-0.05-0.15-0.07-0.29-0.07-0.43c-0.37,0.37-0.87,0.55-1.49,0.55
					c-0.46,0-0.83-0.12-1.1-0.36c-0.27-0.24-0.41-0.56-0.41-0.97c0-0.57,0.27-0.95,0.8-1.17c0.21-0.09,0.59-0.16,1.12-0.23
					c0.48-0.06,0.77-0.12,0.89-0.18c0.12-0.06,0.18-0.17,0.18-0.35c0-0.38-0.27-0.57-0.81-0.57c-0.27,0-0.47,0.05-0.59,0.15
					c-0.13,0.1-0.21,0.27-0.26,0.51h-1.14c0.07-0.98,0.75-1.47,2.02-1.47c0.71,0,1.23,0.14,1.57,0.42c0.15,0.13,0.26,0.27,0.31,0.42
					c0.05,0.15,0.08,0.38,0.07,0.7v1.81C187.43,62.49,187.47,62.88,187.57,63.15z M186.26,61.5V61c-0.14,0.09-0.43,0.16-0.85,0.23
					c-0.34,0.05-0.58,0.13-0.71,0.22c-0.13,0.09-0.19,0.24-0.19,0.44c0,0.4,0.23,0.59,0.68,0.59c0.45,0,0.78-0.17,0.98-0.5
					C186.23,61.87,186.26,61.71,186.26,61.5z"/>
				<path class="st0" d="M191.66,58.67v1.11c-0.18-0.03-0.34-0.05-0.47-0.05c-0.47,0-0.8,0.19-1,0.57
					c-0.11,0.21-0.16,0.54-0.16,0.99v1.84h-1.21v-4.4h1.15v0.81c0.32-0.6,0.79-0.9,1.42-0.9C191.41,58.66,191.5,58.66,191.66,58.67z
					"/>
				<path class="st0" d="M193.84,58.75v0.6c0.36-0.48,0.83-0.72,1.41-0.72c0.58,0,1,0.24,1.23,0.73c0.37-0.49,0.85-0.73,1.44-0.73
					c0.48,0,0.85,0.14,1.11,0.41c0.26,0.27,0.39,0.65,0.39,1.15v2.96h-1.21v-2.62c0-0.3-0.03-0.51-0.1-0.62
					c-0.11-0.19-0.32-0.29-0.63-0.29c-0.36,0-0.61,0.15-0.74,0.47c-0.05,0.12-0.08,0.35-0.08,0.68v2.39h-1.21v-2.68
					c0-0.27-0.03-0.46-0.09-0.57c-0.1-0.19-0.3-0.29-0.58-0.29c-0.38,0-0.64,0.16-0.78,0.48c-0.06,0.13-0.09,0.36-0.09,0.67v2.39
					h-1.21v-4.4H193.84z"/>
				<path class="st0" d="M204.94,63.15h-1.23c-0.05-0.15-0.07-0.29-0.07-0.43c-0.37,0.37-0.87,0.55-1.49,0.55
					c-0.46,0-0.83-0.12-1.1-0.36c-0.27-0.24-0.41-0.56-0.41-0.97c0-0.57,0.27-0.95,0.8-1.17c0.21-0.09,0.59-0.16,1.12-0.23
					c0.48-0.06,0.77-0.12,0.89-0.18c0.12-0.06,0.18-0.17,0.18-0.35c0-0.38-0.27-0.57-0.81-0.57c-0.27,0-0.47,0.05-0.59,0.15
					c-0.13,0.1-0.21,0.27-0.26,0.51h-1.14c0.07-0.98,0.75-1.47,2.02-1.47c0.71,0,1.23,0.14,1.57,0.42c0.15,0.13,0.26,0.27,0.31,0.42
					c0.05,0.15,0.08,0.38,0.07,0.7v1.81C204.8,62.49,204.84,62.88,204.94,63.15z M203.63,61.5V61c-0.14,0.09-0.43,0.16-0.85,0.23
					c-0.34,0.05-0.58,0.13-0.71,0.22c-0.13,0.09-0.19,0.24-0.19,0.44c0,0.4,0.23,0.59,0.68,0.59c0.45,0,0.78-0.17,0.98-0.5
					C203.6,61.87,203.63,61.71,203.63,61.5z"/>
				<path class="st0" d="M214.43,59.88v3.27h-0.85l-0.14-0.69c-0.46,0.56-1.07,0.84-1.84,0.84c-0.83,0-1.51-0.29-2.04-0.88
					c-0.53-0.59-0.8-1.34-0.8-2.26c0-0.95,0.28-1.73,0.83-2.33c0.55-0.6,1.27-0.9,2.15-0.9c0.7,0,1.29,0.2,1.77,0.6
					c0.48,0.4,0.76,0.92,0.83,1.55h-1.29c-0.06-0.33-0.21-0.58-0.44-0.76c-0.23-0.18-0.53-0.27-0.89-0.27c-0.5,0-0.9,0.19-1.19,0.56
					c-0.29,0.37-0.43,0.88-0.43,1.53c0,0.66,0.14,1.17,0.44,1.54c0.29,0.36,0.7,0.55,1.23,0.55c0.42,0,0.76-0.13,1.03-0.38
					c0.27-0.25,0.41-0.58,0.42-0.99h-1.35v-0.98H214.43z"/>
				<path class="st0" d="M218.81,58.67v1.11c-0.18-0.03-0.34-0.05-0.47-0.05c-0.47,0-0.8,0.19-1,0.57
					c-0.11,0.21-0.16,0.54-0.16,0.99v1.84h-1.21v-4.4h1.15v0.81c0.32-0.6,0.79-0.9,1.42-0.9C218.56,58.66,218.65,58.66,218.81,58.67
					z"/>
				<path class="st0" d="M221.9,58.63c0.67,0,1.21,0.21,1.62,0.64c0.41,0.43,0.62,0.99,0.62,1.69c0,0.7-0.21,1.26-0.63,1.68
					c-0.42,0.42-0.96,0.63-1.65,0.63c-0.68,0-1.23-0.21-1.65-0.64c-0.42-0.43-0.63-0.98-0.63-1.67c0-0.71,0.21-1.27,0.63-1.7
					C220.64,58.84,221.2,58.63,221.9,58.63z M221.86,59.52c-0.34,0-0.6,0.13-0.78,0.38c-0.19,0.26-0.28,0.61-0.28,1.05
					c0,0.44,0.1,0.79,0.28,1.04c0.19,0.25,0.45,0.38,0.79,0.38c0.33,0,0.59-0.13,0.78-0.37c0.19-0.25,0.28-0.6,0.28-1.04
					c0-0.46-0.09-0.81-0.28-1.06C222.46,59.65,222.2,59.52,221.86,59.52z"/>
				<path class="st0" d="M229.55,58.75v4.4h-1.15v-0.62c-0.35,0.49-0.84,0.74-1.46,0.74c-0.56,0-0.98-0.19-1.25-0.56
					c-0.18-0.25-0.27-0.64-0.27-1.18v-2.79h1.21v2.43c0,0.34,0.02,0.57,0.06,0.69c0.1,0.27,0.33,0.41,0.71,0.41
					c0.39,0,0.66-0.17,0.83-0.51c0.08-0.16,0.12-0.44,0.12-0.84v-2.19H229.55z"/>
				<path class="st0" d="M232.25,58.75v0.55c0.31-0.44,0.77-0.67,1.37-0.67c0.59,0,1.06,0.22,1.42,0.65c0.36,0.43,0.54,1,0.54,1.71
					c0,0.68-0.17,1.22-0.52,1.65c-0.35,0.42-0.8,0.63-1.35,0.63c-0.61,0-1.07-0.22-1.39-0.67v2.11h-1.21v-5.96H232.25z
					 M233.31,59.61c-0.33,0-0.59,0.12-0.77,0.36c-0.19,0.24-0.28,0.57-0.28,1c0,0.43,0.09,0.77,0.28,1
					c0.19,0.24,0.45,0.36,0.79,0.36c0.33,0,0.58-0.12,0.77-0.36c0.18-0.24,0.27-0.58,0.27-1.01c0-0.42-0.1-0.75-0.28-0.99
					C233.89,59.73,233.64,59.61,233.31,59.61z"/>
			</g>
		</g>
	</g>
	<g>
		<linearGradient id="SVGID_1_" gradientUnits="userSpaceOnUse" x1="4.4519" y1="32.8536" x2="70.257" y2="32.8536">
			<stop  offset="9.914300e-04" style="stop-color:#001554"/>
			<stop  offset="0.1328" style="stop-color:#071D60"/>
			<stop  offset="0.4277" style="stop-color:#142C74"/>
			<stop  offset="0.7189" style="stop-color:#1C3581"/>
			<stop  offset="1" style="stop-color:#1F3885"/>
		</linearGradient>
		<path class="st1" d="M34.73,11.76c0.69,1.72,0.15,3.63-1.2,4.75c-0.04,0.03-0.08,0.06-0.12,0.09c-0.93,0.74-1.67,1.33-1.82,1.44
			c-3.9,3-7.81,5.69-12.34,7.7c-4.01,1.78-12.28,4.88-14.35-1.14c-0.29-0.85-0.42-1.76-0.44-2.66c-0.08-3.5,1.07-7.06,2.52-10.24
			c0.08-0.17,0.15-0.33,0.23-0.5c0.07-0.16,0.16-0.31,0.22-0.47c0.07-0.15,0.11-0.23,0.11-0.23c-0.12,0.64-0.3,1.27-0.47,1.92
			c-0.58,2.17-0.83,4.8,1.63,5.85c2.16,0.94,4.98,0.44,7.11-0.33c3.03-1.09,5.7-3.07,8.32-4.91c1.36-0.97,2.71-1.94,4.06-2.92
			c0.12-0.1,0.26-0.2,0.4-0.29c0.22-0.15,0.46-0.28,0.72-0.38C31.45,8.6,33.87,9.63,34.73,11.76z M56.52,21.48
			c-0.3,0.12-0.58,0.27-0.84,0.44c-0.09,0.05-0.16,0.1-0.24,0.16c-0.03,0.02-0.05,0.03-0.06,0.05c-0.01,0-0.01,0-0.01,0.01
			c-0.03,0.02-0.04,0.03-0.06,0.05c-0.11,0.11-0.23,0.21-0.35,0.32c-0.01,0.01-0.02,0.03-0.03,0.04
			c-8.68,7.8-17.51,14.83-27.86,19.68c-0.23,0.12-0.47,0.22-0.7,0.33c-6.41,2.93-13.08,5.31-19.67-0.28
			c0.15,0.12,0.25,0.53,0.33,0.71c0.12,0.25,0.24,0.49,0.37,0.75c0.24,0.48,0.5,0.96,0.78,1.43c0.77,1.34,1.58,2.67,2.65,3.8
			c1.03,1.1,2.26,2.02,3.6,2.72c2.35,1.21,5.01,1.64,7.63,1.37c1.18-0.17,2.42-0.45,3.74-0.84c1.25-0.37,2.47-0.84,3.68-1.31
			c2.75-1.09,5.39-2.35,7.96-3.73c7.16-3.87,13.67-8.74,19.94-13.98c0.86-0.71,1.7-1.46,2.54-2.21c0.49-0.44,0.98-0.89,1.47-1.35
			c0.04-0.03,0.09-0.07,0.12-0.11c0.01-0.01,0.02-0.01,0.03-0.02c0.01-0.01,0.02-0.02,0.03-0.03c0.1-0.1,0.2-0.2,0.29-0.3
			c0.02-0.02,0.03-0.04,0.05-0.06c1.16-1.33,1.54-3.23,0.85-4.96C61.78,21.68,58.98,20.49,56.52,21.48z M57.42,39.32
			c-0.32,0.13-0.61,0.3-0.87,0.5c-0.06,0.03-0.11,0.08-0.15,0.12c-0.41,0.32-0.82,0.64-1.23,0.97c-1.97,1.54-3.9,2.99-5.94,4.25
			c-0.22,0.14-0.44,0.27-0.66,0.41c-8.98,5.59-17.73,12.14-29.41,10.58c-0.47-0.06-0.95-0.13-1.43-0.23c0.23,0.17,0.46,0.34,0.7,0.5
			c2.75,1.95,5.73,3.8,9.07,4.53c3.2,0.7,6.63,0.47,9.71-0.67c8.82-3.26,16.59-8.4,24-14.56c0.01,0,0.01-0.01,0.02-0.02
			c1.23-1.01,1.73-2.74,1.11-4.3C61.54,39.48,59.34,38.55,57.42,39.32z M63.12,51.9c-0.35-0.5-0.9-0.85-1.5-0.97
			c-0.73-0.14-1.43,0.08-2.01,0.52c-0.57,0.44-1.12,0.91-1.69,1.35c-0.59,0.46-1.18,0.91-1.78,1.35c-1.36,1-2.75,1.97-4.18,2.87
			c-1.42,0.89-2.87,1.73-4.36,2.49c-1.49,0.76-3.03,1.45-4.6,2.04c-0.79,0.3-1.59,0.58-2.4,0.83c-0.41,0.13-0.82,0.25-1.23,0.37
			c-0.21,0.06-0.42,0.11-0.62,0.17c-0.18,0.05-0.42,0.16-0.6,0.15c4.89,0.19,10.12-0.59,15.42-2.71c2.71-1.09,5.16-2.42,7.36-3.93
			c0.06-0.03,0.1-0.06,0.15-0.09c0.01,0,0.02-0.02,0.03-0.02c0.48-0.33,1.04-0.75,1.57-1.18c0.79-0.65,1.12-1.75,0.71-2.75
			C63.32,52.21,63.23,52.05,63.12,51.9z M38.49,2.6c-2.24,0-4.05,1.81-4.05,4.05c0,2.24,1.81,4.05,4.05,4.05
			c2.24,0,4.05-1.81,4.05-4.05C42.54,4.42,40.73,2.6,38.49,2.6z M66.21,14.56c-2.24,0-4.05,1.81-4.05,4.05
			c0,2.24,1.81,4.05,4.05,4.05c2.24,0,4.05-1.81,4.05-4.05C70.26,16.38,68.44,14.56,66.21,14.56z"/>
		<linearGradient id="SVGID_2_" gradientUnits="userSpaceOnUse" x1="3.3986" y1="21.3333" x2="63.8975" y2="21.3333">
			<stop  offset="0" style="stop-color:#E66C20"/>
			<stop  offset="1" style="stop-color:#F6B01D"/>
		</linearGradient>
		<path class="st2" d="M56.33,10.5c0.64,1.6,0.29,3.37-0.79,4.59c-0.02,0.02-0.03,0.04-0.05,0.06c-0.1,0.1-0.2,0.2-0.3,0.31
			c-9.4,9.44-19.19,17.96-31.34,22.91c-1.85,0.76-3.76,1.43-5.73,2.01c-4.59,1.35-8.25,1-10.79-0.83c-0.02-0.02-0.03-0.04-0.06-0.05
			c-2.51-2.13-3.42-6.02-3.74-8.92c0-0.02,0-0.05-0.01-0.07c-0.09-0.93-0.13-1.84-0.14-2.75c0,0,2.74,5.53,7.82,4.92
			c0.02,0,0.03,0,0.06-0.01c0.64-0.04,1.34-0.13,2.09-0.28c2.54-0.5,4.92-1.29,7.2-2.3c5.65-2.49,10.62-6.28,15.53-10.04
			c4.44-3.39,8.59-7.16,12.96-11.03C49.07,9.01,49.08,9,49.1,8.99c0.08-0.07,0.16-0.13,0.24-0.2c0.06-0.05,0.11-0.09,0.16-0.14
			c0.02-0.02,0.04-0.03,0.06-0.05c0.07-0.05,0.15-0.1,0.23-0.15c0.23-0.15,0.5-0.29,0.77-0.4C52.83,7.13,55.42,8.23,56.33,10.5z
			 M59.85,1.47c-2.24,0-4.05,1.81-4.05,4.05s1.81,4.05,4.05,4.05c2.24,0,4.05-1.81,4.05-4.05S62.09,1.47,59.85,1.47z"/>
	</g>
	<g>
		<defs>
			<path id="SVGID_3_" d="M56.52,21.48c-0.3,0.12-0.58,0.27-0.84,0.44c-0.09,0.05-0.16,0.1-0.24,0.16
				c-0.03,0.02-0.05,0.03-0.06,0.05c-0.01,0-0.01,0-0.01,0.01c-0.03,0.02-0.04,0.03-0.06,0.05c-0.11,0.11-0.23,0.21-0.35,0.32
				c-0.01,0.01-0.02,0.03-0.03,0.04c-8.68,7.8-17.51,14.83-27.86,19.68c-0.23,0.12-0.47,0.22-0.7,0.33
				c-6.41,2.93-13.08,5.31-19.67-0.28c0.15,0.12,0.25,0.53,0.33,0.71c0.12,0.25,0.24,0.49,0.37,0.75c0.24,0.48,0.5,0.96,0.78,1.43
				c0.77,1.34,1.58,2.67,2.65,3.8c1.03,1.1,2.26,2.02,3.6,2.72c2.35,1.21,5.01,1.64,7.63,1.37c1.18-0.17,2.42-0.45,3.74-0.84
				c1.25-0.37,2.47-0.84,3.68-1.31c2.75-1.09,5.39-2.35,7.96-3.73c7.16-3.87,13.67-8.74,19.94-13.98c0.86-0.71,1.7-1.46,2.54-2.21
				c0.49-0.44,0.98-0.89,1.47-1.35c0.04-0.03,0.09-0.07,0.12-0.11c0.01-0.01,0.02-0.01,0.03-0.02c0.01-0.01,0.02-0.02,0.03-0.03
				c0.1-0.1,0.2-0.2,0.29-0.3c0.02-0.02,0.03-0.04,0.05-0.06c1.16-1.33,1.54-3.23,0.85-4.96C61.78,21.68,58.98,20.49,56.52,21.48z
				 M57.42,39.32c-0.32,0.13-0.61,0.3-0.87,0.5c-0.06,0.03-0.11,0.08-0.15,0.12c-0.41,0.32-0.82,0.64-1.23,0.97
				c-1.97,1.54-3.9,2.99-5.94,4.25c-0.22,0.14-0.44,0.27-0.66,0.41c-8.98,5.59-17.73,12.14-29.41,10.58
				c-0.47-0.06-0.95-0.13-1.43-0.23c0.23,0.17,0.46,0.34,0.7,0.5c2.75,1.95,5.73,3.8,9.07,4.53c3.2,0.7,6.63,0.47,9.71-0.67
				c8.82-3.26,16.59-8.4,24-14.56c0.01,0,0.01-0.01,0.02-0.02c1.23-1.01,1.73-2.74,1.11-4.3C61.54,39.48,59.34,38.55,57.42,39.32z
				 M63.12,51.9c-0.35-0.5-0.9-0.85-1.5-0.97c-0.73-0.14-1.43,0.08-2.01,0.52c-0.57,0.44-1.12,0.91-1.69,1.35
				c-0.59,0.46-1.18,0.91-1.78,1.35c-1.36,1-2.75,1.97-4.18,2.87c-1.42,0.89-2.87,1.73-4.36,2.49c-1.49,0.76-3.03,1.45-4.6,2.04
				c-0.79,0.3-1.59,0.58-2.4,0.83c-0.41,0.13-0.82,0.25-1.23,0.37c-0.21,0.06-0.42,0.11-0.62,0.17c-0.18,0.05-0.42,0.16-0.6,0.15
				c4.89,0.19,10.12-0.59,15.42-2.71c2.71-1.09,5.16-2.42,7.36-3.93c0.06-0.03,0.1-0.06,0.15-0.09c0.01,0,0.02-0.02,0.03-0.02
				c0.48-0.33,1.04-0.75,1.57-1.18c0.79-0.65,1.12-1.75,0.71-2.75C63.32,52.21,63.23,52.05,63.12,51.9z"/>
		</defs>
		<clipPath id="SVGID_4_">
			<use xlink:href="#SVGID_3_"  style="overflow:visible;"/>
		</clipPath>
		
			<radialGradient id="SVGID_5_" cx="52.4778" cy="30.5265" r="35.6318" gradientTransform="matrix(0.2924 0.9563 -0.985 0.3011 67.2032 -28.8511)" gradientUnits="userSpaceOnUse">
			<stop  offset="0" style="stop-color:#FFFFFF;stop-opacity:0.8"/>
			<stop  offset="0.4033" style="stop-color:#8997C4;stop-opacity:0.3302"/>
			<stop  offset="0.6867" style="stop-color:#3B529D;stop-opacity:0"/>
		</radialGradient>
		<circle class="st3" cx="51.77" cy="31.23" r="30.05"/>
	</g>
</g>
</svg>
