<?xml version="1.0" encoding="utf-8"?>
<!-- Generator: Adobe Illustrator 27.8.1, SVG Export Plug-In . SVG Version: 6.00 Build 0)  -->
<svg version="1.1" id="Layer_1" xmlns="http://www.w3.org/2000/svg" xmlns:xlink="http://www.w3.org/1999/xlink" x="0px" y="0px"
	 viewBox="0 0 653.4 595.3" style="enable-background:new 0 0 653.4 595.3;" xml:space="preserve">
<style type="text/css">
	.st0{fill:#A7A9AC;}
	.st1{fill:#FFFFFF;}
	.st2{fill:#ED1C24;}
	.st3{fill:#9BC13C;}
	.st4{fill:#FFFFFF;stroke:#FFFFFF;stroke-width:1.3926;stroke-linecap:round;stroke-linejoin:round;}
	.st5{fill:#E8EED3;}
</style>
<g>
	<g>
		<path class="st0" d="M587.4,94.4c-44.8,0-70.1,17.1-79.7,53.8c-0.1,0.5-0.8,3.2-1.6,6.2c-6.6-40.7-30.6-60-75.8-60H197.1
			c-66.7,0-110.8,33.8-127.5,97.9c0,0-57.4,222-57.4,222h84.6c19.4,0,42.6-13.4,50.6-43.2c0,0,2.1-7.5,3.4-12.6
			c4.1,8.3,8.6,16.2,14.7,22.5c29.4,31,73.3,33.4,86,33.4l116.7,0c25,0,47.1-17.9,53.7-43.6c0,0,1.8-6.8,1.9-7.3
			c2,13.9,7.5,50.8,7.5,50.8l53.7,0.1c47.4,0,85.5-39.7,104.4-109c0-0.1,52.1-210.9,52.1-210.9H587.4z"/>
		<path class="st1" d="M587.4,103.5c-41,0-62.2,14-70.8,47c0,0-8.4,31.8-13.2,49.8c-2.7-22-5.6-41.4-5.6-41.7
			c-5.3-38.6-25.5-55.1-67.5-55.1H197.1c-62.1,0-103.1,31.5-118.6,91c0,0-54.5,210.5-54.5,210.5h72.7c15.9,0,35-11.3,41.7-36.4
			c5.4-19.1,8.5-30.6,11.3-42.5c2.7,19.4,10.1,35.6,22.3,48.5c26.9,28.3,67.5,30.5,79.4,30.5H308l60.2-0.1
			c19.6,0,38.9-15.7,44.8-36.5c3-10.4,6.5-24.1,10.6-40c0,0,1.4-5.4,2.8-10.6c3.1,21.4,12.8,87,12.8,87h2.6l43.2,0.1
			c43,0,77.7-37.2,95.5-102.2c0,0,49.3-199.4,49.3-199.4H587.4z"/>
		<path class="st2" d="M581.3,120.3c-27.5,0-41.7,8.7-48.1,33.2l-34.4,125L481.9,160c-5-29.9-21.7-39.7-48.1-39.7
			c-4.1,0-43.7,0-43.7,0l-33.9,127.1c4.5,0.9,21.2-3.2,28.5-10.5c9.2,16.3-1.6,51.2-28.6,59.4c-1.2,24.8-20.5,63.3-30.9,71.4
			l-5.9,20.6c0,0,37.6,0,42,0c10.9,0,31.3-6.9,37.3-27.5c1.9-6.9,33.4-119.8,33.4-119.8l22.1,147.3h24c48.1,0,74.6-42.3,87.9-90.8
			l42.7-177.3H581.3z"/>
		<path class="st2" d="M211.2,182.4c0,0,12.4,0,30.5,0c18.2,0,27.8-5.1,33.7-24.3l10.4-37.7h-89.7c-58.2,0-89,29.9-101.3,77.2
			l-50,190.9c0,0,25.8,0,45.2,0c28.2,0,32.7-23.1,36.3-35.8c3.7-12.8,17.8-63.7,17.8-63.7h41.7c13.7,0,31.2-4.8,35.2-19.5
			c2.2-7.6,9.1-32.1,9.1-32.1c-20.6,0-72.8,0-74.9,0l4.5-13.2C165.4,206.9,176.5,182.4,211.2,182.4z"/>
		<path class="st3" d="M288.1,281.4c-8.4,9-7.7,10.2,3.3,9.4c7.1-0.6,8.5,2.1,8.5,3c0,0.5-0.3,1.4-1.3,4.5
			c-7.2,21.9-24.1,44.9-50,42.5c-35.9-3.3-2.8-84.4,75.8-91.8c6.5-10.3,9.8-31.6,9.5-37.6c0,0-39.7,5.1-34.3-29.3
			c2.2-13.8,13.7-24.5,47.2-20.2c13,1.2,19.8,1.4,23.3-10c0.9-3.2,8.1-31.7,8.1-31.7c-16.8-3.5-68.3-3.2-80.5,0l-11.7,41
			c-6.6,21.8-20.5,32.1-43.8,32.1h-8c-1.3,23.5,19.2,33.3,30.8,36.9c-7.3,1.3-21.9,5.2-22.5,7.2c-2.2,8.7-6.3,24.4-12.6,40.6
			c-7.3,18.8-26,23.5-43.6,23.5c0,0-13.1,0-23.2,0c-4.3,26,9.1,51.5,23.9,66.3c26.2,26.2,86.4,31.6,121.3,1.2
			c25.4-22.2,36.6-60.5,40.1-79.5c20.8-6.2,28.1-30.5,29.5-38.3c-11.8,11.1-31.2,8.1-49.1,10.5C312.5,263.8,298.7,270,288.1,281.4z"
			/>
		<path class="st4" d="M372.8,258.9c-1.6,3.5-4.3,10.3-12.5,17c-5.6,4.6-15.5,7.8-22.3,6.1C357.1,281.5,373.2,258,372.8,258.9z"/>
		<path class="st5" d="M170.7,322.9c0,0,10.9,59.3,73.6,59.1c58.8-0.2,81.7-37.7,92.1-75.2c0,0-22.1,60.4-82,63
			C224,371,186.7,365.2,170.7,322.9z"/>
	</g>
	<g>
		<path class="st2" d="M17.3,501.1h-4.1V468h3c0.4,0.9,0.6,2.2,0.7,3.4h0.3c0.9-2.6,3.3-3.9,6.8-3.9c6.1,0,8.6,4.5,8.6,11.3
			c0,8.6-3.7,13.6-11.1,13.6c-1.9,0-3.4-0.2-4.2-0.4V501.1z M21.3,488.6c4.6,0,7.1-3.2,7.1-9.7c0-4.7-1.6-7.5-5.6-7.5
			c-2.2,0-4,0.9-5.4,2.1v14.4C18.4,488.4,19.7,488.6,21.3,488.6z"/>
		<path class="st2" d="M53.5,468h4.1v23.7h-2.9c-0.4-1-0.7-2.1-0.8-3.2h-0.3c-0.9,2.1-3,3.8-6.9,3.8c-4.6,0-7.6-2.2-7.6-7.8V468h4.1
			v15.1c0,3.6,1.4,5.2,4.6,5.2c2.5,0,4.4-0.9,5.8-2V468z"/>
		<path class="st2" d="M69.1,468c0.4,1.2,0.7,2.3,0.8,3.7h0.3c0.6-2.4,2.1-4.2,5.3-4.2c2.8,0,4.1,1,4.1,2.6c0,0.9-0.3,1.9-1,2.7
			c-0.8-0.6-1.9-1-3.7-1c-1.8,0-3.7,0.8-4.6,2.6v17.5h-4.1V468H69.1z"/>
		<path class="st2" d="M92.9,488.4c2.8,0,4.8-0.8,6.3-1.7c0.5,0.6,0.9,1.4,0.9,2.2c0,2.2-3.7,3.4-7.6,3.4c-7.3,0-10.8-4.2-10.8-12.3
			c0-7.6,3.9-12.5,10.2-12.5c5.9,0,8.7,4.1,8.7,9.6c0,1-0.1,1.9-0.2,2.7H85.9C86,486,88.5,488.4,92.9,488.4z M96.3,476.6
			c0-3.7-1.7-5.6-4.6-5.6c-2.5,0-4.9,1.8-5.6,5.6H96.3z"/>
		<path class="st2" d="M125.2,488.4c2.8,0,4.8-0.8,6.3-1.7c0.5,0.6,0.9,1.4,0.9,2.2c0,2.2-3.7,3.4-7.6,3.4
			c-7.3,0-10.8-4.2-10.8-12.3c0-7.6,3.9-12.5,10.2-12.5c5.9,0,8.7,4.1,8.7,9.6c0,1-0.1,1.9-0.2,2.7h-14.4
			C118.2,486,120.7,488.4,125.2,488.4z M128.5,476.6c0-3.7-1.7-5.6-4.6-5.6c-2.5,0-4.9,1.8-5.6,5.6H128.5z"/>
		<path class="st2" d="M143.5,491.7h-4.1V468h2.9c0.4,0.9,0.7,2.1,0.8,3.2h0.3c0.9-2.1,2.9-3.8,6.9-3.8c4.7,0,7.6,2.2,7.6,7.8v16.5
			h-4.1v-15.2c0-3.5-1.3-5.1-4.5-5.1c-2.7,0-4.6,1.1-5.9,2.2V491.7z"/>
		<path class="st2" d="M166.2,468h4.1v22.9c0,6.8-3.7,10.7-8,10.7c-1.7,0-2.5-0.7-2.5-2.2c0-0.4,0-0.9,0.1-1.2
			c4.9-0.3,6.3-3.5,6.3-8.7V468z M170.9,460.5c0,1.7-1,2.7-2.6,2.7c-1.6,0-2.7-1-2.7-2.7c0-1.7,1.1-2.8,2.7-2.8
			C169.8,457.8,170.9,458.9,170.9,460.5z"/>
		<path class="st2" d="M197.4,479.5c0,8.5-4,12.8-10.5,12.8c-6.1,0-10-3.7-10-12.4c0-8.2,4.3-12.5,10.6-12.5
			C193.7,467.4,197.4,471.5,197.4,479.5z M181.2,479.7c0,6.6,2.6,9,5.9,9c3.7,0,6-2.7,6-8.9c0-5.9-2.3-8.6-5.7-8.6
			C183.8,471.1,181.2,473.7,181.2,479.7z"/>
		<path class="st2" d="M200,468h4.7l6.3,19.3l6.3-19.3h4.5l-8.2,22.5c-2.6,7.4-6.2,11.1-11.4,11.1c-1.8,0-2.6-0.8-2.6-2.2
			c0-0.4,0.1-1,0.2-1.4c4.7,0,7.2-1.7,8.9-5.8L200,468z"/>
		<path class="st2" d="M244.6,491.7h-4.2v-15c0-3.6-1.1-5.2-4.3-5.2c-2.5,0-4.3,1-5.6,2v18.2h-4.1V468h2.9c0.4,0.9,0.7,2.1,0.8,3.2
			h0.3c0.9-2.1,2.8-3.8,6.7-3.8c3.7,0,5.8,1.4,6.9,3.9h0.3c1-2.3,2.8-3.9,6.8-3.9c4.7,0,7.5,2.2,7.5,7.8v16.5h-4.1v-15
			c0-3.6-1.2-5.2-4.4-5.2c-2.5,0-4.3,1-5.6,2V491.7z"/>
		<path class="st2" d="M276.4,488.4c2.8,0,4.8-0.8,6.3-1.7c0.5,0.6,0.9,1.4,0.9,2.2c0,2.2-3.7,3.4-7.6,3.4
			c-7.3,0-10.8-4.2-10.8-12.3c0-7.6,3.9-12.5,10.2-12.5c5.9,0,8.7,4.1,8.7,9.6c0,1-0.1,1.9-0.2,2.7h-14.4
			C269.5,486,272,488.4,276.4,488.4z M279.7,476.6c0-3.7-1.7-5.6-4.6-5.6c-2.5,0-4.9,1.8-5.6,5.6H279.7z"/>
		<path class="st2" d="M294.7,491.7h-4.1V468h2.9c0.4,0.9,0.7,2.1,0.8,3.2h0.3c0.9-2.1,2.9-3.8,6.9-3.8c4.7,0,7.6,2.2,7.6,7.8v16.5
			h-4.1v-15.2c0-3.5-1.3-5.1-4.5-5.1c-2.7,0-4.6,1.1-5.9,2.2V491.7z"/>
		<path class="st2" d="M322,468h6.8v3.4H322v13.1c0,2.7,1.1,3.8,3.1,3.8c1.7,0,3-0.5,4-1.2c0.7,0.7,1,1.5,1,2.2
			c0,1.7-2.1,2.9-5.6,2.9c-4.7,0-6.6-2.3-6.6-7.2v-13.7h-3.6V468h3.6v-2.1c0-2.1,1-3,2.8-3c0.7,0,1,0,1.2,0.1V468z"/>
		<path class="st2" d="M343.4,489.2c0,1.8-1.2,3-2.9,3c-1.8,0-2.9-1.2-2.9-3s1.1-3,2.9-3C342.2,486.3,343.4,487.5,343.4,489.2z"/>
		<path class="st2" d="M358.7,501.1h-4.1V468h3c0.4,0.9,0.6,2.2,0.7,3.4h0.3c0.9-2.6,3.3-3.9,6.8-3.9c6.1,0,8.6,4.5,8.6,11.3
			c0,8.6-3.7,13.6-11.1,13.6c-1.9,0-3.4-0.2-4.2-0.4V501.1z M362.6,488.6c4.6,0,7.1-3.2,7.1-9.7c0-4.7-1.6-7.5-5.6-7.5
			c-2.2,0-4,0.9-5.4,2.1v14.4C359.7,488.4,361.1,488.6,362.6,488.6z"/>
		<path class="st2" d="M394.8,468h4.1v23.7H396c-0.4-1-0.7-2.1-0.8-3.2h-0.3c-0.9,2.1-3,3.8-6.9,3.8c-4.7,0-7.6-2.2-7.6-7.8V468h4.1
			v15.1c0,3.6,1.4,5.2,4.6,5.2c2.5,0,4.4-0.9,5.8-2V468z"/>
		<path class="st2" d="M410.4,468c0.4,1.2,0.7,2.3,0.8,3.7h0.3c0.6-2.4,2.1-4.2,5.3-4.2c2.8,0,4.1,1,4.1,2.6c0,0.9-0.3,1.9-1,2.7
			c-0.8-0.6-1.9-1-3.7-1c-1.8,0-3.7,0.8-4.6,2.6v17.5h-4.1V468H410.4z"/>
		<path class="st2" d="M434.3,488.4c2.8,0,4.8-0.8,6.3-1.7c0.5,0.6,0.9,1.4,0.9,2.2c0,2.2-3.7,3.4-7.6,3.4
			c-7.3,0-10.8-4.2-10.8-12.3c0-7.6,3.9-12.5,10.2-12.5c5.9,0,8.7,4.1,8.7,9.6c0,1-0.1,1.9-0.2,2.7h-14.4
			C427.4,486,429.8,488.4,434.3,488.4z M437.6,476.6c0-3.7-1.7-5.6-4.6-5.6c-2.5,0-4.9,1.8-5.6,5.6H437.6z"/>
		<path class="st2" d="M457.1,487.4c0-2,1.3-3.5,3.2-3.9c-3.6-1.1-5.3-3.9-5.3-7.5c0-5.7,3.8-8.5,9.6-8.5c1.3,0,2.5,0.2,3.6,0.6h7.6
			c0.1,0.5,0.1,1,0.1,1.5c0,1.3-0.4,2.2-2,2l-1.5-0.1c0.8,1.2,1.1,2.6,1.1,4.3c0,4.6-2.8,8.4-9.3,8.4c-0.9,0-1.6,0-2.4-0.2
			c-0.7,0.5-1,1.3-1,2.3c0,1.3,1,2,2.4,2h6.4c3.7,0,5.7,2.2,5.7,5.4c0,4.6-3.6,7.9-11.1,7.9c-6.3,0-9.9-1.9-9.9-6.3
			c0-2.4,1.7-4.4,4.2-4.6C457.5,489.9,457.1,488.8,457.1,487.4z M458.4,494.4c0,2.7,2.3,3.8,6.1,3.8c4.1,0,6.6-1.6,6.6-4
			c0-1.3-0.9-2.5-2.9-2.5h-5c-1.4,0-2.5-0.1-3.4-0.5C458.9,492,458.4,493.1,458.4,494.4z M459.2,475.9c0,3,1.8,4.9,5.2,4.9
			c3.4,0,5.1-2,5.1-5.2c0-2.9-1.8-4.8-5.1-4.8C461,470.7,459.2,472.5,459.2,475.9z"/>
		<path class="st2" d="M500.2,479.5c0,8.5-4,12.8-10.5,12.8c-6.1,0-10-3.7-10-12.4c0-8.2,4.3-12.5,10.6-12.5
			C496.5,467.4,500.2,471.5,500.2,479.5z M484,479.7c0,6.6,2.6,9,5.9,9c3.7,0,6-2.7,6-8.9c0-5.9-2.3-8.6-5.7-8.6
			C486.6,471.1,484,473.7,484,479.7z"/>
		<path class="st2" d="M525.4,479.5c0,8.5-4,12.8-10.5,12.8c-6.1,0-10-3.7-10-12.4c0-8.2,4.3-12.5,10.6-12.5
			C521.7,467.4,525.4,471.5,525.4,479.5z M509.2,479.7c0,6.6,2.6,9,5.9,9c3.7,0,6-2.7,6-8.9c0-5.9-2.3-8.6-5.7-8.6
			C511.8,471.1,509.2,473.7,509.2,479.7z"/>
		<path class="st2" d="M545.5,457.7h4.1v34h-3c-0.4-1-0.7-2.2-0.7-3.3h-0.3c-0.9,2.5-3.2,3.9-6.7,3.9c-6.1,0-8.6-4.6-8.6-11.4
			c0-8.5,3.8-13.4,11.2-13.4c1.8,0,3.3,0.2,4.1,0.4V457.7z M541.5,471.1c-4.4,0-7,3-7,9.6c0,4.6,1.5,7.5,5.6,7.5
			c2.2,0,4-0.9,5.4-2.1v-14.3C544.4,471.3,543,471.1,541.5,471.1z"/>
		<path class="st2" d="M562.2,491.7h-4.1V468h2.9c0.4,0.9,0.7,2.1,0.8,3.2h0.3c0.9-2.1,2.9-3.8,6.9-3.8c4.7,0,7.6,2.2,7.6,7.8v16.5
			h-4.1v-15.2c0-3.5-1.3-5.1-4.5-5.1c-2.7,0-4.6,1.1-5.9,2.2V491.7z"/>
		<path class="st2" d="M594.4,488.4c2.8,0,4.8-0.8,6.3-1.7c0.5,0.6,0.9,1.4,0.9,2.2c0,2.2-3.7,3.4-7.6,3.4
			c-7.3,0-10.8-4.2-10.8-12.3c0-7.6,3.9-12.5,10.2-12.5c5.9,0,8.7,4.1,8.7,9.6c0,1-0.1,1.9-0.2,2.7h-14.4
			C587.5,486,589.9,488.4,594.4,488.4z M597.7,476.6c0-3.7-1.7-5.6-4.6-5.6c-2.5,0-4.9,1.8-5.6,5.6H597.7z"/>
		<path class="st2" d="M621.7,470.4c0,0.8-0.4,1.7-1,2.3c-1.2-0.8-2.9-1.7-5.3-1.7c-2.9,0-4.2,1.2-4.2,3c0,4.5,11,3.5,11,10.9
			c0,4.6-3,7.4-8.8,7.4c-2.7,0-6.8-0.6-6.8-3.2c0-0.9,0.3-1.8,0.9-2.3c1.2,0.9,3.5,1.9,6,1.9c2.8,0,4.5-1.1,4.5-3.1
			c0-4.5-10.9-3.2-10.9-11.2c0-4.1,2.8-6.9,8.7-6.9C618.3,467.4,621.7,468.2,621.7,470.4z"/>
		<path class="st2" d="M641.5,470.4c0,0.8-0.4,1.7-1,2.3c-1.2-0.8-2.9-1.7-5.3-1.7c-2.9,0-4.2,1.2-4.2,3c0,4.5,11,3.5,11,10.9
			c0,4.6-3,7.4-8.8,7.4c-2.7,0-6.8-0.6-6.8-3.2c0-0.9,0.3-1.8,0.9-2.3c1.2,0.9,3.5,1.9,6,1.9c2.8,0,4.5-1.1,4.5-3.1
			c0-4.5-10.9-3.2-10.9-11.2c0-4.1,2.8-6.9,8.7-6.9C638,467.4,641.5,468.2,641.5,470.4z"/>
	</g>
</g>
</svg>
